<svg xmlns="http://www.w3.org/2000/svg" data-name="Layer 1" viewBox="0 0 700 550"><defs><clipPath id="a"><circle cx="269.965" cy="229.884" r="19.98" fill="none"/></clipPath><clipPath id="b"><circle cx="398.547" cy="381.29" r="19.98" fill="none"/></clipPath><clipPath id="c"><circle cx="201.316" cy="404.692" r="19.98" fill="none"/></clipPath><clipPath id="d"><circle cx="382.515" cy="264.624" r="12.095" fill="none"/></clipPath><clipPath id="e"><circle cx="206.799" cy="292.855" r="12.095" fill="none"/></clipPath></defs><path fill="#f7f9f9" d="M594.2951,248.63524c33.03059,28.43842,27.71843,91.1114,14.93434,127.73491-3.40172,9.74025-23.594,67.577-72.10946,81.904-50.73223,14.98321-73.61855-34.97619-140.82131-36.48658-74.90254-1.68394-89.7149,59.40542-154,58.19469C171.37556,478.64538,75.83062,402.14978,81.06955,302.776c4.08236-77.42163,68.26844-148.43019,129.26154-151.22318,68.69963-3.14553,79.75232,82.70933,175.3162,106.52438,99.09992,24.69634,162.99583-48.746,208.64781-9.442"/><path fill="#f7f9f9" d="M324.118,155.5865c-7.28214,14.66056,45.65873,70.60593,114.34884,78.47512,36.17611,4.14476,84.98036-4.1,86.32262-17.93753,2.71706-28.02354-188.66293-84.71191-200.67146-60.53759"/><rect width="48.926" height="77.244" x="349.304" y="202.147" fill="#4ca258" transform="rotate(22.36 373.771 240.773)"/><rect width="39.1" height="61.731" x="355.1" y="207.758" fill="#81c56d" transform="rotate(22.361 374.65 238.624)"/><path fill="#4ca258" d="M365.837 195.74479l-4.20336 10.218a10.8557 10.8557 0 0014.03492-5.96142l.07468-.18153zM411.08381 214.35778l-4.20336 10.218a10.85571 10.85571 0 01-5.77756-14.1116l.07468-.18153z"/><circle cx="377.018" cy="232.866" r="10.092" fill="#4ca258"/><rect width="48.926" height="77.244" x="179.737" y="202.147" fill="#4ca258" transform="rotate(-.547 204.201 240.77)"/><rect width="39.1" height="61.731" x="184.628" y="207.584" fill="#81c56d" transform="rotate(-.547 204.179 238.451)"/><path fill="#4ca258" d="M179.3694 202.38267l.10551 11.04832a10.8557 10.8557 0 0010.60754-10.95433l-.00187-.19628zM228.29278 201.91545l.10551 11.04833A10.8557 10.8557 0 01217.58348 202.214l-.00188-.19628z"/><circle cx="204.118" cy="232.224" r="10.092" fill="#4ca258"/><path fill="#ffcb5c" d="M558.53816,413.74522c-8.56564-16.5484-39.57755-75.98769-46.09335-81.8071l10.585-26.17542c4.35146-10.76062-2.80829-23.07542-14.389-23.85843q-.611-.04131-1.23279-.04153h-1.29055c-1.38743-8.80426-5.24323-15.14759-9.79369-15.14759H467.34986c-4.55046,0-8.40627,6.34333-9.7937,15.14759h-.54458q-.62152,0-1.2328.04153c-11.58072.783-18.74047,13.09781-14.389,23.85843l10.585,26.17542-44.49709,80.54156a44.38606,44.38606,0,0,0-3.90617,34.54609c5.26387,16.90366,20.32549,30.20188,39.7608,30.98984q.94416.03848,1.89845.03847H519.931q.95365,0,1.89909-.03847c24.286-.98452,41.74322-21.50423,41.7865-44.1829A43.6723,43.6723,0,0,0,558.53816,413.74522Z"/><path fill="#f29720" d="M448.939 283.79032c2.46774 15.82009 19.3246 46.73109 19.3246 46.73109-6.53631-20.23124-10.70747-48.65867-10.70747-48.65867h-.54458A17.90387 17.90387 0 00448.939 283.79032zM514.51108 283.77607c.02343-.15039.03736-.27989.05825-.4249a17.93253 17.93253 0 00-7.16131-1.48843h-1.29055c-.012-.0771-.02786-.1504-.04052-.22718-.11589.1401-.18618.22718-.18618.22718s-4.17052 28.42743-10.70683 48.65867C495.18394 330.52141 512.0503 299.59188 514.51108 283.77607zM514.56933 377.25249c-2.46773-15.82009-19.32459-46.73108-19.32459-46.73108 6.5363 20.23124 10.70746 48.65867 10.70746 48.65867h.54459A17.9038 17.9038 0 00514.56933 377.25249zM448.99729 377.26674c-.02343.15039-.03736.27989-.05826.4249a17.93253 17.93253 0 007.16131 1.48844h1.29055c.012.07709.02786.15039.04053.22717.11588-.1401.18617-.22717.18617-.22717s4.17052-28.42743 10.70683-48.65867C468.32442 330.52141 451.45806 361.45093 448.99729 377.26674z"/><path fill="#32333c" d="M482.645 338.25642c-.31282 0-.62437 0-.93719-.00127a286.14219 286.14219 0 01-32.553-1.9732 3.89045 3.89045 0 01-3.37987-4.38009h0a3.88856 3.88856 0 014.32851-3.34228 277.3988 277.3988 0 0065.09625-.00055 3.89358 3.89358 0 014.33357 3.34613h0a3.88786 3.88786 0 01-3.37874 4.37754A286.57194 286.57194 0 01482.645 338.25642zM471.41953 424.42092a19.031 19.031 0 009.63008 2.71574c5.49312 0 8.702-2.90067 8.702-7.09757 0-3.88867-2.22259-6.11126-7.839-8.27221-6.78763-2.40581-10.98624-5.92462-10.98624-11.78931 0-6.47942 5.36983-11.29446 13.4554-11.29446a18.927 18.927 0 019.19858 2.036l-1.48287 4.38353a16.54511 16.54511 0 00-7.90064-1.976c-5.678 0-7.839 3.39553-7.839 6.23455 0 3.88868 2.53081 5.80134 8.2705 8.02393 7.03763 2.71574 10.61638 6.11126 10.61638 12.22082 0 6.41948-4.7534 11.97424-14.565 11.97424-4.01367 0-8.39379-1.17122-10.61638-2.65409z"/><rect width="4.798" height="57.795" x="480.854" y="381.383" fill="#32333c"/><circle cx="115.499" cy="214.303" r="31.93" fill="#ffcb5c"/><path fill="#f29720" d="M109.27222,223.61885a10.85364,10.85364,0,0,0,5.49219,1.54883c3.13281,0,4.96289-1.6543,4.96289-4.04785,0-2.21777-1.26758-3.48535-4.47071-4.71777-3.87109-1.37208-6.26562-3.37891-6.26562-6.72364,0-3.69531,3.0625-6.4414,7.67383-6.4414a10.79432,10.79432,0,0,1,5.24609,1.16113l-.8457,2.5a9.436,9.436,0,0,0-4.50586-1.12695c-3.23828,0-4.4707,1.93652-4.4707,3.55566,0,2.21777,1.44335,3.30859,4.71679,4.57617,4.01367,1.54883,6.05469,3.48535,6.05469,6.96973,0,3.66113-2.71094,6.8291-8.30664,6.8291a12.25,12.25,0,0,1-6.05469-1.51367Z"/><rect width="2.736" height="32.961" x="114.653" y="199.073" fill="#f29720"/><path fill="#f29720" d="M96.48758,214.30294a31.94022,31.94022,0,0,1,25.47029-31.27526,31.92956,31.92956,0,1,0,0,62.55047A31.94021,31.94021,0,0,1,96.48758,214.30294Z"/><path fill="#ffcb5c" d="M115.15277 185.25269a31.43854 31.43854 0 00-3.78171 2.0516H98.44591c.56082-.35563 1.12848-.69071 1.70966-1.01215l2.07213-1.03945zM106.64544 190.94926c-.69755.64968-1.37457 1.33354-2.01052 2.05159H91.71671q.954-1.0668 2.00376-2.05159zM99.79311 200.14725q-.50263 1.00525-.92312 2.05159H85.95169q.42073-1.04634.92328-2.05159zM96.82524 209.68032c-.10268.677-.17781 1.36089-.23257 2.0516H83.67453c.0546-.69071.1299-1.37458.23241-2.0516zM97.7552 223.22768H84.83707c-.19835-.67017-.36931-1.354-.51974-2.05159H97.23546C97.386 221.87364 97.55694 222.55066 97.7552 223.22768zM103.19882 233.896H90.28745c-.51974-.66337-1.00526-1.34724-1.47032-2.0516h12.91821C102.19348 232.54876 102.68592 233.23263 103.19882 233.896zM100.74374 242.62894h12.93188a31.66771 31.66771 0 01-3.40565-2.05159H97.35177z"/><circle cx="335.07" cy="184.847" r="15.23" fill="#ffcb5c"/><path fill="#f29720" d="M332.10034,189.29073a5.16876,5.16876,0,0,0,2.61817.73828c1.49414,0,2.36719-.78809,2.36719-1.92969,0-1.05762-.6045-1.66211-2.13184-2.249-1.84668-.65528-2.98828-1.61133-2.98828-3.20606,0-1.76269,1.46094-3.07129,3.65918-3.07129a5.141,5.141,0,0,1,2.501.55371l-.40234,1.19141a4.50963,4.50963,0,0,0-2.14844-.53711c-1.54394,0-2.13183.92285-2.13183,1.69531,0,1.05762.68847,1.57813,2.249,2.18164,1.91406.73926,2.88672,1.66211,2.88672,3.32325,0,1.74609-1.292,3.25683-3.96094,3.25683a5.85175,5.85175,0,0,1-2.88672-.72168Z"/><rect width="1.305" height="15.722" x="334.668" y="177.582" fill="#f29720"/><path fill="#f29720" d="M326.00248,184.8467a15.23478,15.23478,0,0,1,12.14877-14.91761,15.2297,15.2297,0,1,0,0,29.83519A15.23477,15.23477,0,0,1,326.00248,184.8467Z"/><path fill="#ffcb5c" d="M334.90537 170.99037a14.99609 14.99609 0 00-1.8038.97857h-6.165c.26749-.16963.53825-.32946.81547-.48278l.98836-.49579zM330.84756 173.70751c-.33272.30988-.65564.63607-.959.97856h-6.16171c.30337-.33923.623-.66542.95575-.97856zM327.57915 178.09474q-.23974.47949-.44031.97857H320.9771q.20067-.49908.44038-.97857zM326.16354 182.64181c-.049.32293-.08481.64911-.11093.97857h-6.16167c.026-.32946.062-.65564.11086-.97857zM326.60711 189.10361h-6.16166c-.09461-.31966-.17616-.64585-.24791-.97857h6.16167C326.431 188.45776 326.51254 188.78068 326.60711 189.10361zM329.2036 194.19216h-6.15844c-.24791-.31642-.47949-.6426-.70131-.97857h6.1617C328.72407 193.54956 328.959 193.87574 329.2036 194.19216zM328.03258 198.35758h6.16822a15.10435 15.10435 0 01-1.62442-.97857h-6.1617z"/><circle cx="129.051" cy="336.157" r="15.23" fill="#ffcb5c"/><path fill="#f29720" d="M126.08179,340.6003a5.16875,5.16875,0,0,0,2.61816.73828c1.49414,0,2.36719-.78809,2.36719-1.92969,0-1.05762-.60449-1.66211-2.13184-2.249-1.84667-.65528-2.98828-1.61133-2.98828-3.20606,0-1.76269,1.46094-3.07129,3.65918-3.07129a5.141,5.141,0,0,1,2.501.55371l-.40234,1.19141a4.50963,4.50963,0,0,0-2.14844-.53711c-1.54395,0-2.13184.92285-2.13184,1.69531,0,1.05762.68848,1.57813,2.249,2.18164,1.91406.73926,2.88671,1.66211,2.88671,3.32325,0,1.74609-1.292,3.25683-3.96093,3.25683a5.85172,5.85172,0,0,1-2.88672-.72168Z"/><rect width="1.305" height="15.722" x="128.648" y="328.893" fill="#f29720"/><path fill="#f29720" d="M119.98363,336.15679a15.23477,15.23477,0,0,1,12.14877-14.91761,15.2297,15.2297,0,1,0,0,29.8352A15.23477,15.23477,0,0,1,119.98363,336.15679Z"/><path fill="#ffcb5c" d="M128.88651 322.30046a14.99672 14.99672 0 00-1.80379.97857h-6.165c.2675-.16963.53826-.32945.81547-.48277l.98836-.4958zM124.82871 325.0176c-.33272.30988-.65565.63607-.959.97856H117.708c.30337-.33922.623-.66541.95575-.97856zM121.56029 329.40484q-.23974.47949-.4403.97856h-6.16175q.20068-.49908.44039-.97856zM120.14469 333.95191c-.049.32292-.08482.64911-.11094.97856h-6.16166c.026-.32945.06195-.65564.11085-.97856zM120.58826 340.4137h-6.16167c-.09461-.31966-.17615-.64585-.2479-.97857h6.16166C120.41214 339.76785 120.49369 340.09077 120.58826 340.4137zM123.18474 345.50225H117.0263c-.2479-.31641-.47948-.6426-.70131-.97857h6.16171C122.70522 344.85965 122.9401 345.18584 123.18474 345.50225zM122.01372 349.66767H128.182a15.10492 15.10492 0 01-1.62442-.97856h-6.1617z"/><circle cx="114.976" cy="434.191" r="31.93" fill="#ffcb5c"/><path fill="#f29720" d="M108.74976,443.50655a10.85283,10.85283,0,0,0,5.49121,1.54883c3.13281,0,4.96387-1.6543,4.96387-4.04786,0-2.21777-1.26758-3.48535-4.47071-4.71777-3.87207-1.37207-6.26562-3.37891-6.26562-6.72363,0-3.69531,3.0625-6.44141,7.67383-6.44141a10.793,10.793,0,0,1,5.24511,1.16113l-.84472,2.5a9.443,9.443,0,0,0-4.50586-1.127c-3.23926,0-4.47071,1.93652-4.47071,3.55567,0,2.21777,1.44336,3.30859,4.7168,4.57617,4.0127,1.54883,6.05469,3.48535,6.05469,6.96972,0,3.66114-2.71094,6.82911-8.30762,6.82911a12.25282,12.25282,0,0,1-6.05469-1.51368Z"/><rect width="2.736" height="32.961" x="114.131" y="418.961" fill="#f29720"/><path fill="#f29720" d="M95.96488,434.1907a31.94019,31.94019,0,0,1,25.47029-31.27525,31.92955,31.92955,0,1,0,0,62.55046A31.94018,31.94018,0,0,1,95.96488,434.1907Z"/><path fill="#ffcb5c" d="M114.63006 405.14046a31.43784 31.43784 0 00-3.78171 2.05159H97.92321c.56081-.35562 1.12848-.69071 1.70966-1.01215l2.07213-1.03944zM106.12274 410.837c-.69755.64968-1.37457 1.33354-2.01052 2.05159H91.194c.636-.7112 1.30621-1.39507 2.00376-2.05159zM99.2704 420.035q-.50262 1.00525-.92311 2.05159H85.429q.42074-1.04632.92328-2.05159zM96.30254 429.56809c-.10268.677-.17782 1.36088-.23258 2.05159H83.15183c.05459-.69071.12989-1.37457.23241-2.05159zM97.2325 443.11545H84.31437c-.19835-.67018-.36932-1.354-.51975-2.0516H96.71275C96.86327 441.76141 97.03423 442.43843 97.2325 443.11545zM102.67612 453.78376H89.76475c-.51975-.66337-1.00526-1.34723-1.47033-2.05159h12.91822C101.67077 452.43653 102.16322 453.12039 102.67612 453.78376zM100.221 462.51671h12.93189a31.66681 31.66681 0 01-3.40565-2.0516H96.82907z"/><circle cx="457.803" cy="223.896" r="31.93" fill="#ffcb5c"/><path fill="#f29720" d="M451.57691,233.21211a10.85273,10.85273,0,0,0,5.49121,1.54883c3.13281,0,4.96386-1.65429,4.96386-4.04785,0-2.21777-1.26757-3.48535-4.4707-4.71777-3.87207-1.37207-6.26562-3.37891-6.26562-6.72364,0-3.69531,3.0625-6.4414,7.67382-6.4414a10.79286,10.79286,0,0,1,5.24512,1.16113l-.84472,2.5a9.443,9.443,0,0,0-4.50586-1.12695c-3.23926,0-4.47071,1.93652-4.47071,3.55566,0,2.21778,1.44336,3.3086,4.7168,4.57617,4.01269,1.54883,6.05469,3.48536,6.05469,6.96973,0,3.66113-2.71094,6.8291-8.30762,6.8291a12.2529,12.2529,0,0,1-6.05469-1.51367Z"/><rect width="2.736" height="32.961" x="456.958" y="208.666" fill="#f29720"/><path fill="#f29720" d="M438.79224,223.896a31.94019,31.94019,0,0,1,25.47029-31.27525,31.92955,31.92955,0,1,0,0,62.55046A31.94018,31.94018,0,0,1,438.79224,223.896Z"/><path fill="#ffcb5c" d="M457.45742 194.84578a31.43924 31.43924 0 00-3.78171 2.05159H440.75057c.56081-.35562 1.12848-.69071 1.70966-1.01215l2.07213-1.03944zM448.9501 200.54234c-.69755.64968-1.37457 1.33354-2.01052 2.05159H434.02136c.636-.7112 1.30621-1.39506 2.00376-2.05159zM442.09776 209.74033q-.50262 1.00526-.92311 2.05159h-12.9183q.42073-1.04633.92328-2.05159zM439.1299 219.27341c-.10268.677-.17782 1.36088-.23258 2.05159H425.97919c.05459-.69071.12989-1.37457.23241-2.05159zM440.05986 232.82077H427.14173c-.19835-.67018-.36932-1.354-.51975-2.0516h12.91813C439.69063 231.46673 439.86159 232.14375 440.05986 232.82077zM445.50348 243.48908H432.59211c-.51975-.66337-1.00526-1.34723-1.47033-2.05159H444.04C444.49813 242.14185 444.99058 242.82571 445.50348 243.48908zM443.04839 252.222h12.93189a31.66681 31.66681 0 01-3.40565-2.0516h-12.9182z"/><path fill="#585a66" d="M404.9724,434.36355H154.30773a9.95337,9.95337,0,0,1-10.02658-9.85551V261.34444a9.95337,9.95337,0,0,1,10.02658-9.85552H404.9724a9.95337,9.95337,0,0,1,10.02658,9.85552V424.508A9.95337,9.95337,0,0,1,404.9724,434.36355ZM165.4218,423.413H403.85833V262.4395H165.4218Z"/><rect width="255.148" height="171.924" x="166.883" y="256.964" fill="#71b8e6" rx="4.38"/><path fill="#9fb1c1" d="M245.88921,427.50166v0A37.87818,37.87818,0,0,1,208.011,465.37988H351.7254a37.87818,37.87818,0,0,1-37.87818-37.87818v0Z"/><path fill="#4b9dd7" d="M181.66668,257.51466c-.40516,5.74905-.68989,12.53842-.61329,20.17094A244.32013,244.32013,0,0,0,234.777,428.89119H171.26364a4.379,4.379,0,0,1-4.38023-4.38024V261.34736a4.37964,4.37964,0,0,1,4.38023-4.38023H422.03185v.54753Z"/><path fill="#d6e4f0" d="M263.24848,428.88827v0a37.23192,37.23192,0,0,1-37.23192,37.23193H367.279A37.23192,37.23192,0,0,1,330.047,428.8883v0Z"/><path fill="#ddd" d="M365.13644,466.12021H367.279c-.75472,0-1.50249-.02928-2.246-.07359C365.06693,466.07162,365.10222,466.09534,365.13644,466.12021Z"/><path fill="#b1c5da" d="M285.11926,444.02878l45.61135-8.04452a37.40232,37.40232,0,0,1-.68361-7.096v-.00007H263.24848v.00007a37.23182,37.23182,0,0,1-37.232,37.2319h41.56461c-1.55762-8.85955,1.26834-13.8463,6.687-17.69854A26.65121,26.65121,0,0,1,285.11926,444.02878Z"/><path fill="#9fb1c1" d="M208.011,465.37988H366.29678a2,2,0,0,1,2,2v10.6742a0,0,0,0,1,0,0H206.011a0,0,0,0,1,0,0v-10.6742A2,2,0,0,1,208.011,465.37988Z"/><path fill="#32333c" d="M417.65162,434.36355h-246.388a9.86664,9.86664,0,0,1-9.85552-9.85551V261.34444a9.86664,9.86664,0,0,1,9.85552-9.85552h246.388a9.86664,9.86664,0,0,1,9.85552,9.85552V424.508A9.86664,9.86664,0,0,1,417.65162,434.36355ZM172.35869,423.413H416.55656V262.4395H172.35869Z"/><path fill="#32333c" d="M388.34058,376.03241l-36.31811-12.10632a61.66855,61.66855,0,0,0-9.45643-50.75672l34.45228-43.5437-6.27344-4.96386-33.348,42.14807a61.51548,61.51548,0,0,0-56.1897-18.66467l-5.849-52.465-7.95117.88672,5.96777,53.531a61.76206,61.76206,0,0,0-31.8302,23.66809L209.0398,291.77851l-4.48242,6.626,32.873,22.23657a61.59057,61.59057,0,0,0,1.19642,58.48182l-38.609,20.9884,3.82031,7.02832,39.18372-21.3009a61.634,61.634,0,0,0,106.5249-14.30481l36.26452,12.08838Z"/><circle cx="292.268" cy="348.774" r="53.603" fill="#ffcb5c"/><path fill="#f29720" d="M281.81535,364.41184a18.22394,18.22394,0,0,0,9.221,2.60059c5.26017,0,8.33445-2.77752,8.33445-6.7973,0-3.724-2.12785-5.85181-7.5069-7.92068-6.50243-2.30477-10.52127-5.67394-10.52127-11.28984,0-6.20567,5.14221-10.81615,12.886-10.81615a18.10437,18.10437,0,0,1,8.80626,1.95l-1.41825,4.19671a15.87373,15.87373,0,0,0-7.56588-1.891c-5.438,0-7.5069,3.25121-7.5069,5.96976,0,3.724,2.42366,5.556,7.92067,7.68383,6.73833,2.60059,10.16648,5.85181,10.16648,11.70361,0,6.14763-4.55151,11.46677-13.94942,11.46677-3.84191,0-8.03862-1.12243-10.16647-2.54161Z"/><rect width="4.593" height="55.336" x="290.849" y="323.206" fill="#f29720"/><path fill="#f29720" d="M260.35177,348.77353a53.6214,53.6214,0,0,1,42.75966-52.50507,53.60353,53.60353,0,1,0,0,105.01007A53.62137,53.62137,0,0,1,260.35177,348.77353Z"/><path fill="#ffcb5c" d="M291.687 300.00382a52.78059 52.78059 0 00-6.34875 3.44423H263.63942c.94151-.597 1.8945-1.15957 2.87019-1.6992l3.47871-1.745zM277.40485 309.56725c-1.17106 1.09068-2.30765 2.23876-3.37528 3.44422H252.3424c1.06777-1.194 2.19286-2.342 3.36392-3.44422zM265.9011 325.00888q-.84382 1.68764-1.54973 3.44423H242.66405q.70633-1.75659 1.55-3.44423zM260.91863 341.01307c-.17238 1.13658-.29851 2.28466-.39045 3.44422h-21.687c.09166-1.15956.21807-2.30764.39017-3.44422zM262.47986 363.75645h-21.687c-.333-1.12509-.62-2.27317-.87255-3.44423h21.687C261.86 361.48328 262.147 362.61986 262.47986 363.75645zM271.61864 381.66648H249.943c-.87255-1.11367-1.68764-2.26175-2.4684-3.44423h21.68718C269.93086 379.40473 270.75758 380.55281 271.61864 381.66648zM267.497 396.32739h21.71012a53.15962 53.15962 0 01-5.71742-3.44423H261.80257z"/><circle cx="269.965" cy="229.884" r="24.78" fill="#ef403a"/><circle cx="269.965" cy="229.884" r="19.98" fill="#ef403a"/><g clip-path="url(#a)"><circle cx="270.727" cy="223.546" r="8.662" fill="#32333c"/><path fill="#32333c" d="M270.727,234.04587A20.48411,20.48411,0,0,0,250.2428,254.53h40.96841A20.48411,20.48411,0,0,0,270.727,234.04587Z"/></g><circle cx="398.547" cy="381.29" r="24.78" fill="#ef403a"/><circle cx="398.547" cy="381.29" r="19.98" fill="#ef403a"/><g clip-path="url(#b)"><circle cx="399.31" cy="374.952" r="8.662" fill="#32333c"/><path fill="#32333c" d="M399.30978,385.45258a20.48411,20.48411,0,0,0-20.4842,20.48409H419.794A20.48411,20.48411,0,0,0,399.30978,385.45258Z"/></g><circle cx="201.316" cy="404.692" r="24.78" fill="#ef403a"/><circle cx="201.316" cy="404.692" r="19.98" fill="#ef403a"/><g clip-path="url(#c)"><circle cx="202.079" cy="398.354" r="8.662" fill="#32333c"/><path fill="#32333c" d="M202.07865,408.85388a20.48411,20.48411,0,0,0-20.4842,20.48409h40.96841A20.48412,20.48412,0,0,0,202.07865,408.85388Z"/></g><circle cx="382.515" cy="264.624" r="15.001" fill="#ef403a"/><circle cx="382.515" cy="264.624" r="12.095" fill="#ef403a"/><g clip-path="url(#d)"><circle cx="382.977" cy="260.787" r="5.244" fill="#32333c"/><path fill="#32333c" d="M382.97691,267.14324a12.4,12.4,0,0,0-12.40011,12.4H395.377A12.40005,12.40005,0,0,0,382.97691,267.14324Z"/></g><circle cx="206.799" cy="292.855" r="15.001" fill="#ef403a"/><circle cx="206.799" cy="292.855" r="12.095" fill="#ef403a"/><g clip-path="url(#e)"><circle cx="207.261" cy="289.019" r="5.244" fill="#32333c"/><path fill="#32333c" d="M207.26058,295.375a12.4,12.4,0,0,0-12.40011,12.4h24.80022A12.40005,12.40005,0,0,0,207.26058,295.375Z"/></g><rect width="5.385" height="4" x="114.718" y="478" fill="#222328"/><rect width="275.681" height="4" x="122.982" y="478" fill="#222328"/><rect width="167.358" height="4" x="402.503" y="478" fill="#222328"/><rect width="9.981" height="4" x="575.302" y="478" fill="#222328"/></svg>