<svg xmlns="http://www.w3.org/2000/svg" width="900" height="750" enable-background="new 0 0 900 750" viewBox="0 0 900 750"><rect width="900" height="750" fill="#FFF" display="none"/><linearGradient id="a" x1="554.032" x2="554.032" y1="699.677" y2="409.983" gradientUnits="userSpaceOnUse"><stop offset="0" stop-color="#042637"/><stop offset=".282" stop-color="#0c5357"/><stop offset=".604" stop-color="#157f78"/><stop offset=".855" stop-color="#1a9b8c"/><stop offset="1" stop-color="#1ca593"/></linearGradient><path fill="url(#a)" d="M484.5,421.5c47.858,17.44,116.313,51.85,148.032,60.031C679.699,493.697,784.667,487,791,534
			c3.563,26.444-15.75,41.75-53,51.5c-30.333,7.939-64.226,8.803-72,25c-9,18.75,22,30.5,17,54.5
			c-5.408,25.961-65.465,39.676-129,33c-69-7.25-126.294-26.617-129.419-63.752C422.75,612.5,450.484,577.119,403.25,572
			c-26.115-2.83-55.25-8-76.573-39.738c-15.643-23.283-12.486-60.865,5.958-84.392C363.5,408.5,425.5,400,484.5,421.5z"/><linearGradient id="b" x1="674.068" x2="803.193" y1="459.435" y2="588.56" gradientUnits="userSpaceOnUse"><stop offset="0" stop-color="#00a39f"/><stop offset=".198" stop-color="#00a8a5"/><stop offset=".473" stop-color="#00b7b7"/><stop offset=".792" stop-color="#00cfd5"/><stop offset="1" stop-color="#00e2ec"/></linearGradient><path fill="url(#b)" d="M791,534c-5.403-40.1-82.6-41.113-134.445-48.102l89.981,97.161
			C778.165,573.239,794.28,558.34,791,534z"/><path fill="#3369FF" d="M761.869,577.337l-98.912-90.617c-9.729-1.191-18.753-2.521-26.5-4.251h-0.002l90.949,105.528
			c3.549-0.762,7.096-1.581,10.596-2.497C747.04,583.134,755.013,580.438,761.869,577.337z"/><linearGradient id="c" x1="687.611" x2="746.569" y1="547.918" y2="547.918" gradientUnits="userSpaceOnUse"><stop offset="0" stop-color="#3a64d3"/><stop offset="1" stop-color="#043753"/></linearGradient><polygon fill="url(#c)" points="717.169 534.501 687.611 534.501 711.918 561.334 746.569 561.334"/><linearGradient id="d" x1="665.338" x2="714.977" y1="521.207" y2="521.207" gradientUnits="userSpaceOnUse"><stop offset="0" stop-color="#3a64d3"/><stop offset="1" stop-color="#043753"/></linearGradient><polygon fill="url(#d)" points="685.8 532.501 714.978 532.501 690.227 509.912 665.338 509.912"/><linearGradient id="e" x1="714.636" x2="772.5" y1="575.346" y2="575.346" gradientUnits="userSpaceOnUse"><stop offset="0" stop-color="#3a64d3"/><stop offset="1" stop-color="#043753"/></linearGradient><path fill="url(#e)" d="M714.636,564.334l19.95,22.024l0,0c1.142-0.278,2.281-0.562,3.414-0.858
			c9.7-2.539,18.171-5.459,25.352-8.85l-13.495-12.316H714.636z"/><linearGradient id="f" x1="639" x2="688.035" y1="495.701" y2="495.701" gradientUnits="userSpaceOnUse"><stop offset="0" stop-color="#3a64d3"/><stop offset="1" stop-color="#043753"/></linearGradient><path fill="url(#f)" d="M663.526,507.912h24.509l-22.937-20.934c-8.521-1.017-16.542-2.122-23.694-3.488l0,0
			L663.526,507.912z"/><radialGradient id="g" cx="581.409" cy="620.428" r="104.937" gradientTransform="matrix(1 0 0 .4134 0 363.943)" gradientUnits="userSpaceOnUse"><stop offset="0" stop-color="#231f20"/><stop offset=".122" stop-color="#242228"/><stop offset=".317" stop-color="#25293f"/><stop offset=".56" stop-color="#283665"/><stop offset=".838" stop-color="#2c4799"/><stop offset="1" stop-color="#2e52ba"/></radialGradient><path fill="url(#g)" d="M645.5,605.5c-31.814,6.935-76.453,4.214-92.5,3s-68.75-7.25-72.5,13.5
			c-2.939,16.267,20,30.75,57,31.5c44.146,0.895,99.383-17.914,139.736-11.667C670.18,631.028,660.43,622.104,666,610.5
			c1.664-3.467,4.532-6.228,8.299-8.51C666.408,601.991,656.923,603.01,645.5,605.5z" opacity=".4"/><radialGradient id="h" cx="417.715" cy="567.775" r="60.326" gradientUnits="userSpaceOnUse"><stop offset="0" stop-color="#231f20"/><stop offset=".122" stop-color="#242228"/><stop offset=".317" stop-color="#25293f"/><stop offset=".56" stop-color="#283665"/><stop offset=".838" stop-color="#2c4799"/><stop offset="1" stop-color="#2e52ba"/></radialGradient><path fill="url(#h)" d="M435.475,587.517c1.605,0.375,2.935,1.2,3.746,2.322
			c0.811,1.121,1.005,2.407,0.547,3.619l-1.604,4.245l5.767,1.349l1.605-4.245c0.834-2.205,0.551-4.531-0.763-6.614
			c0.21-0.17,0.425-0.339,0.633-0.511c0.95-0.791,1.873-1.604,2.771-2.439c1.794-1.674,3.491-3.441,5.07-5.324
			c3.138-3.766,5.878-8.007,7.438-12.961c0.763-2.443,1.271-5.279,0.905-8.319c-0.343-3.033-1.731-6.342-4.186-8.99
			c-0.912-1.001-1.938-1.895-3.04-2.682c6.014-8.491,10.438-14.865,10.969-15.966c2.167-4.499-3.333-6-3.333-6h-29.667
			l-61.242,40.904c10.74,3.446,21.691,4.961,32.159,6.096c14.048,1.522,21.464,5.723,24.999,11.443
			c5.849-8.118,12.854-17.864,19.204-26.761c0.048,0.039,0.105,0.073,0.152,0.112c0.86,0.732,1.479,1.671,1.814,2.97
			c0.327,1.308,0.315,2.862-0.03,4.627c-0.67,3.493-2.387,7.075-4.67,10.448c-1.144,1.691-2.43,3.34-3.825,4.926
			c-0.697,0.793-1.422,1.572-2.168,2.328l-1.135,1.115c-0.021,0.021-0.045,0.042-0.067,0.063c-0.135-0.035-0.266-0.078-0.403-0.11
			c-3.039-0.71-6.132-0.473-8.763,0.471c0.839,1.398,1.454,2.886,1.877,4.446C431.717,587.335,433.621,587.084,435.475,587.517z" opacity=".4"/><linearGradient id="i" x1="220.568" x2="633.33" y1="-1.033" y2="411.728" gradientUnits="userSpaceOnUse"><stop offset="0" stop-color="#042637"/><stop offset="1" stop-color="#1ca593"/></linearGradient><path fill="url(#i)" d="M164.667,60.667C195.471,39.806,260.063,27.316,310.5,38.5c57.5,12.75,86.25,41.75,145,37.5
		c49.078-3.55,141.5-2,176,2.5S733.334,89,733.5,147c0.115,40.333-35.815,47.484-53.5,56.5c-20.414,10.407-44.334,16.75-44.334,41
		c0,19.5,21.462,28.035,34.334,38c15.5,12,35.744,28.162,26.999,57c-6.502,21.441-28.819,38.683-52.013,40.344
		c-9.798,0.702-44.635,5.587-84.556-11.367c-23.098-9.81-43.098-30.81-50.181-49.977c-14.063-38.055-15.691-32.125-35.25-29
		c-48.389,7.731-76,30.25-103,63.5c-27.024,33.279-59.826,63.72-101.5,62.5c-51.25-1.5-49.432-48.286-71.5-75
		c-28.5-34.5-91.791-63.918-100.333-148.833C93,135.333,112,96.333,164.667,60.667z"/><radialGradient id="j" cx="404.527" cy="73.666" r="34.362" gradientUnits="userSpaceOnUse"><stop offset="0" stop-color="#fff" stop-opacity=".25"/><stop offset=".287" stop-color="#fdfdfd" stop-opacity=".178"/><stop offset=".426" stop-color="#f5f8f8" stop-opacity=".143"/><stop offset=".534" stop-color="#e8efef" stop-opacity=".117"/><stop offset=".626" stop-color="#d6e2e3" stop-opacity=".094"/><stop offset=".707" stop-color="#bdd1d2" stop-opacity=".073"/><stop offset=".781" stop-color="#a0bcbe" stop-opacity=".055"/><stop offset=".849" stop-color="#7ca4a6" stop-opacity=".038"/><stop offset=".913" stop-color="#53878a" stop-opacity=".022"/><stop offset=".971" stop-color="#26676b" stop-opacity=".007"/><stop offset="1" stop-color="#0d565a" stop-opacity="0"/></radialGradient><path fill="url(#j)" d="M404.584,108c18.068,0,32.866-13.961,34.221-31.683c-25.217-0.887-45.052-8.09-65.681-16.404
			c-1.844,4.212-2.874,8.861-2.874,13.753C370.25,92.628,385.621,108,404.584,108z"/><linearGradient id="k" x1="386.029" x2="417.613" y1="60.638" y2="92.222" gradientUnits="userSpaceOnUse"><stop offset="0" stop-color="#3ec6a8"/><stop offset="1" stop-color="#ffe2a8"/></linearGradient><path fill="url(#k)" d="M404.584,96c11.752,0,21.377-9.08,22.26-20.606c-15.472-1.845-29.076-6.028-42.532-11.1
			c-1.32,2.851-2.062,6.024-2.062,9.372C382.25,86.001,392.249,96,404.584,96z"/><path fill="#CFDBA8" d="M397.084,75.5c2.908,0,5.308-2.203,5.627-5.027c-0.334-0.095-0.664-0.198-0.996-0.295
			c-0.18,2.41-2.177,4.322-4.631,4.322c-2.573,0-4.667-2.093-4.667-4.667c0-0.875,0.257-1.684,0.677-2.385
			c-0.327-0.111-0.654-0.222-0.98-0.334c-0.444,0.808-0.697,1.734-0.697,2.719C391.417,72.958,393.959,75.5,397.084,75.5z"/><path fill="#FDE1A7" d="M413.451,88.891c-2.127,0-3.935-0.912-4.96-2.502c-1.804-2.8-0.553-6.829,2.787-8.982
				c1.351-0.87,2.862-1.33,4.371-1.33c2.128,0,3.936,0.912,4.96,2.503c1.804,2.8,0.554,6.829-2.787,8.981
				C416.471,88.432,414.959,88.891,413.451,88.891z M415.648,77.077c-1.316,0-2.64,0.405-3.829,1.17
				c-2.877,1.854-3.994,5.263-2.488,7.599c0.837,1.299,2.338,2.044,4.119,2.044c1.316,0,2.641-0.405,3.829-1.17
				c2.877-1.854,3.994-5.263,2.488-7.599C418.931,77.822,417.43,77.077,415.648,77.077z"/><path fill="#D5DCA8" d="M389.837,90.579l-0.59-0.808c1.225-0.895,1.928-2.265,1.928-3.761c0-2.573-2.094-4.667-4.667-4.667
				c-0.881,0-1.748,0.257-2.507,0.743l-0.539-0.842c0.92-0.589,1.974-0.901,3.046-0.901c3.125,0,5.667,2.542,5.667,5.667
				C392.175,87.829,391.323,89.494,389.837,90.579z"/><linearGradient id="l" x1="142.504" x2="142.504" y1="150.5" y2="57" gradientUnits="userSpaceOnUse"><stop offset="0" stop-color="#043753"/><stop offset="1" stop-color="#3a64d3"/></linearGradient><path fill="url(#l)" d="M185.5,57h-14.915c-2.086,1.19-4.067,2.413-5.919,3.667
		c-38.789,26.269-59.297,54.355-65.157,89.833H185.5V57z"/><linearGradient id="m" x1="696.999" x2="760" y1="326.553" y2="326.553" gradientUnits="userSpaceOnUse"><stop offset="0" stop-color="#043753"/><stop offset="1" stop-color="#3a64d3"/></linearGradient><path fill="url(#m)" d="M696.999,313.606V339.5C700.048,329.447,699.566,320.939,696.999,313.606z"/><linearGradient id="n" x1="60.5" x2="201.5" y1="71.042" y2="71.042" gradientUnits="userSpaceOnUse"><stop offset="0" stop-color="#e868ef"/><stop offset="1" stop-color="#7558ce"/></linearGradient><path fill="url(#n)" d="M201.5,83.5V44.179c-14.56,4.396-27.313,10.041-36.833,16.488
		c-17.527,11.87-31.306,24.114-41.707,37.238L190.5,94.5C196.575,94.5,201.5,89.575,201.5,83.5z"/><path fill="#052D3C" d="M192.333,78.333v-31.13c-10.747,3.854-20.205,8.41-27.667,13.463
		c-11.523,7.804-21.434,15.767-29.828,24.036l52.495-1.37C190.095,83.333,192.333,81.095,192.333,78.333z"/><g><linearGradient id="o" x1="635.666" x2="696.999" y1="312.549" y2="312.549" gradientUnits="userSpaceOnUse"><stop offset="0" stop-color="#005da5"/><stop offset="1" stop-color="#0a444d"/></linearGradient><path fill="url(#o)" d="M670,282.5c-12.872-9.965-34.334-18.5-34.334-38v136.099c4.085-0.275,7.262-0.607,9.32-0.755
				c23.193-1.661,45.511-18.902,52.013-40.344v-25.894C692.2,299.904,680.097,290.317,670,282.5z"/><linearGradient id="p" x1="652.25" x2="699.112" y1="332.845" y2="332.845" gradientUnits="userSpaceOnUse"><stop offset="0" stop-color="#00a39f"/><stop offset="1" stop-color="#00e2ec"/></linearGradient><path fill="url(#p)" d="M652.25,297.72v81.087c20.443-4.305,38.931-20.119,44.749-39.308
				c7.726-25.477-7.173-41.057-21.438-52.618l-16.311,3.838C655.384,290.72,652.25,293.854,652.25,297.72z"/><path fill="#3369FF" d="M655.25,297.72c0-2.206,1.794-4,4-4h0.349l18.854-4.437c-1.963-1.672-3.942-3.261-5.88-4.78
				l-13.701,3.224c-5.34,0.2-9.622,4.605-9.622,9.993v81.642c2.018-0.31,4.02-0.739,6-1.27V297.72z"/><g><path fill="#003451" d="M701.166,95.468V160h30.929c0.911-3.91,1.419-8.214,1.405-13
				C733.425,120.7,719.539,105.093,701.166,95.468z"/><linearGradient id="q" x1="657.666" x2="704" y1="121.087" y2="121.087" gradientUnits="userSpaceOnUse"><stop offset="0" stop-color="#45959f"/><stop offset="1" stop-color="#0e4a5f"/></linearGradient><path fill="url(#q)" d="M704,160V97.03c-13.9-7.979-30.803-12.196-46.334-14.856V160H704z"/><rect width="3" height="23" x="647.166" y="133.167" fill="#003451"/><rect width="3" height="23" x="679.5" y="116.5" fill="#003451"/><path fill="#003451" d="M696.999,196.021c17.277-7.709,36.586-19.436,36.501-49.021c-0.021-7.646-1.221-14.381-3.349-20.335
				h-33.152V196.021z"/><linearGradient id="r" x1="635.666" x2="696.999" y1="185.582" y2="185.582" gradientUnits="userSpaceOnUse"><stop offset="0" stop-color="#005da5"/><stop offset="1" stop-color="#0a444d"/></linearGradient><path fill="url(#r)" d="M635.666,157.665V244.5c0-24.25,23.92-30.593,44.334-41c4.712-2.402,10.723-4.678,16.999-7.479
				v-69.357L635.666,157.665z"/><linearGradient id="s" x1="635.666" x2="696.999" y1="145.582" y2="145.582" gradientUnits="userSpaceOnUse"><stop offset="0" stop-color="#00a39f"/><stop offset=".208" stop-color="#00a7a4"/><stop offset=".453" stop-color="#00b3b2"/><stop offset=".716" stop-color="#00c6ca"/><stop offset=".992" stop-color="#00e1eb"/><stop offset="1" stop-color="#00e2ec"/></linearGradient><polygon fill="url(#s)" points="635.666 164.5 696.999 133.5 696.999 126.665 635.666 157.665"/><linearGradient id="t" x1="636.75" x2="690.25" y1="118.786" y2="118.786" gradientUnits="userSpaceOnUse"><stop offset="0" stop-color="#00afaf"/><stop offset="1" stop-color="#00e2ec"/></linearGradient><path fill="url(#t)" d="M636.75,137.625c0,1.104,0.125,3.875,2,3.125l49.5-24c1.458-0.583,2-2.021,2-3.125V98.75
					c0-1.104-0.917-2.333-2-2l-49.5,24c-1.438,0.813-2,2.396-2,3.5V137.625z"/><linearGradient id="u" x1="634.75" x2="692.25" y1="118.786" y2="118.786" gradientUnits="userSpaceOnUse"><stop offset="0" stop-color="#7182e2"/><stop offset="1" stop-color="#e868ef"/></linearGradient><path fill="url(#u)" d="M638.164,142.877C638.163,142.877,638.163,142.877,638.164,142.877
					c-1.027,0-3.414-0.512-3.414-5.252V124.25c0-1.631,0.79-3.983,3.016-5.241l0.112-0.059l49.638-24.066l0.146-0.045
					c0.311-0.096,0.631-0.144,0.951-0.144c2.176,0,3.638,2.097,3.638,4.056v14.875c0,1.68-0.836,3.973-3.184,4.952l-49.573,24.03
					C639.045,142.786,638.598,142.877,638.164,142.877z M639.69,122.517c-0.688,0.418-0.94,1.26-0.94,1.733v13.375
					c0,0.362,0.017,0.653,0.041,0.882l48.716-23.614c0.723-0.289,0.743-1.169,0.743-1.268V98.973L639.69,122.517z"/><linearGradient id="v" x1="696.999" x2="732.094" y1="130.082" y2="130.082" gradientUnits="userSpaceOnUse"><stop offset="0" stop-color="#00a39f"/><stop offset=".235" stop-color="#019e9a"/><stop offset=".512" stop-color="#05908d"/><stop offset=".81" stop-color="#0b7877"/><stop offset="1" stop-color="#106565"/></linearGradient><path fill="url(#v)" d="M696.999,126.665v6.835h35.095c-0.516-2.387-1.166-4.664-1.942-6.835H696.999z"/><g><linearGradient id="w" x1="669" x2="688" y1="183.004" y2="183.004" gradientUnits="userSpaceOnUse"><stop offset="0" stop-color="#3ec6a8"/><stop offset="1" stop-color="#ffe2a8"/></linearGradient><path fill="url(#w)" d="M686,157.25l-15,7c-1.104,0-2,0.896-2,2v42.508c3.676-1.707,7.393-3.419,11-5.258
					c2.379-1.212,5.094-2.393,8-3.624V159.25C688,158.146,687.104,157.25,686,157.25z"/><linearGradient id="x" x1="678.5" x2="678.5" y1="189.533" y2="179.319" gradientUnits="userSpaceOnUse"><stop offset="0" stop-color="#7558ce"/><stop offset="1" stop-color="#e868ef"/></linearGradient><polygon fill="url(#x)" points="688 179.319 669 186.334 669 189.533 688 182.517"/><linearGradient id="y" x1="678.5" x2="678.5" y1="209.923" y2="154.75" gradientUnits="userSpaceOnUse"><stop offset="0" stop-color="#7558ce"/><stop offset="1" stop-color="#e868ef"/></linearGradient><path fill="url(#y)" d="M686,154.75h-0.555l-15.103,7.048c-2.171,0.319-3.843,2.194-3.843,4.452v43.673
					c1.655-0.776,3.327-1.548,5-2.327V166.75l14-6.508v40.704c1.596-0.693,3.273-1.398,5-2.125V159.25
					C690.5,156.769,688.481,154.75,686,154.75z"/></g></g></g><g><linearGradient id="z" x1="266.473" x2="284.951" y1="566.785" y2="566.785" gradientTransform="rotate(-7.161 276.164 563.14)" gradientUnits="userSpaceOnUse"><stop offset="0" stop-color="#00e2ec"/><stop offset="1" stop-color="#0090b2"/></linearGradient><path fill="url(#z)" d="M271.821,579.296l-1.632-5.772l5.172-1.463c2.918-0.825,4.623-3.871,3.797-6.79
			c-0.825-2.918-3.868-4.622-6.79-3.797l-5.108,1.446l-1.634-5.773l5.11-1.447c6.108-1.724,12.471,1.839,14.197,7.939
			c1.724,6.104-1.838,12.47-7.939,14.194L271.821,579.296z"/><linearGradient id="A" x1="281.949" x2="348.991" y1="550.055" y2="550.055" gradientUnits="userSpaceOnUse"><stop offset="0" stop-color="#a281ff"/><stop offset="1" stop-color="#ff57bd"/></linearGradient><path fill="url(#A)" d="M341.293,530.48c-9.472,6.709-19.129,13.109-29.111,18.684
		c-4.985,2.766-15.882,8.896-22.599,10.169c-2.095,0.396-5.132,0.46-6.895,0.224l0,0.003c-1.039,1.271-1.481,7.61,2.129,10.024
		c0.416,0.023,0.828,0.041,1.231,0.045c1.844,0.013,3.572-0.164,5.241-0.419c3.328-0.526,6.415-1.38,9.406-2.354
		c5.967-1.972,11.55-4.446,17.003-7.092c10.875-5.326,21.204-11.408,31.293-17.762L341.293,530.48z"/><path fill="#00CFFF" d="M294.839,569.014c-0.063,0-0.126-0.012-0.188-0.036c-1.548-0.628-2.659-1.759-3.302-3.361
			c-0.942-2.348-0.641-5.338,0.142-7.078c0.113-0.252,0.408-0.367,0.661-0.251c0.252,0.113,0.364,0.409,0.251,0.661
			c-0.68,1.51-0.955,4.229-0.126,6.296c0.538,1.341,1.463,2.285,2.749,2.806c0.256,0.104,0.379,0.396,0.276,0.651
			C295.224,568.896,295.036,569.014,294.839,569.014z"/><g><path fill="#00CFFF" d="M305.024,565.815c-0.095,0-0.191-0.027-0.276-0.084c-2.034-1.353-3.321-3.512-3.624-6.08
			c-0.271-2.288,0.282-4.684,1.343-5.825c0.187-0.204,0.504-0.216,0.707-0.026c0.202,0.188,0.214,0.504,0.026,0.706
			c-0.721,0.776-1.345,2.803-1.083,5.028c0.19,1.607,0.897,3.843,3.185,5.365c0.23,0.152,0.292,0.463,0.14,0.693
			C305.345,565.737,305.186,565.815,305.024,565.815z"/></g></g><g><linearGradient id="B" x1="354.624" x2="403.51" y1="505.104" y2="553.991" gradientUnits="userSpaceOnUse"><stop offset="0" stop-color="#00e2ec"/><stop offset="1" stop-color="#0090b2"/></linearGradient><path fill="url(#B)" d="M400.717,546.951l39.408-29.576c-0.401-1.946-0.999-3.559-1.776-4.888
		c-2.617-4.474-7.262-5.737-13.224-5.737h-47.792c-7.732,0-7.708,1.375-20.783,9.701l-40.353,27.078L400.717,546.951z"/><linearGradient id="C" x1="391.75" x2="443.104" y1="541.092" y2="541.092" gradientUnits="userSpaceOnUse"><stop offset="0" stop-color="#3ec6a8"/><stop offset="1" stop-color="#ffe2a8"/></linearGradient><path fill="url(#C)" d="M436.549,510.19l-0.002-0.008L391.75,546l11.5,26l39.854-41l-2.979-13.625
		C439.456,514.126,438.232,511.813,436.549,510.19z"/><linearGradient id="D" x1="413.784" x2="437.933" y1="540.178" y2="540.178" gradientUnits="userSpaceOnUse"><stop offset="0" stop-color="#a281ff"/><stop offset="1" stop-color="#ff57bd"/></linearGradient><path fill="url(#D)" d="M436.281,532.455c-2.387-5.587-8.85-8.181-14.437-5.794l-1.38,0.589
		c-5.586,2.387-8.18,8.851-5.794,14.437l5.509,12.896l17.752-18.263L436.281,532.455z"/><linearGradient id="E" x1="310.25" x2="403.25" y1="556.489" y2="556.489" gradientUnits="userSpaceOnUse"><stop offset="0" stop-color="#3ec6a8"/><stop offset="1" stop-color="#ffe2a8"/></linearGradient><path fill="url(#E)" d="M403.25,572v-17.021c0-7.732-6.268-14-14-14h-65c-7.732,0-14,6.268-14,14V572H403.25z"/><linearGradient id="F" x1="330.5" x2="385.167" y1="550.822" y2="550.822" gradientUnits="userSpaceOnUse"><stop offset="0" stop-color="#a281ff"/><stop offset="1" stop-color="#ff57bd"/></linearGradient><path fill="url(#F)" d="M344.5,560.667h26.667c7.732,0,14-6.268,14-14v-5.688H330.5v5.688
		C330.5,554.399,336.768,560.667,344.5,560.667z"/></g><g><linearGradient id="G" x1="362.842" x2="420.024" y1="448.604" y2="448.604" gradientUnits="userSpaceOnUse"><stop offset="0" stop-color="#a281ff"/><stop offset="1" stop-color="#ff57bd"/></linearGradient><path fill="url(#G)" d="M420.024,461.875c-0.631-0.884-1.197-1.668-1.663-2.299c-7.299-9.889-11.861-16.764-15.861-20.514
		c-3.84-3.6-8.541-3.729-10.75-3.729h-24.375c-4,0-5.188,3.916-4.208,6.249l12.15,20.292H420.024z"/><linearGradient id="H" x1="338.492" x2="449.269" y1="483.565" y2="483.565" gradientUnits="userSpaceOnUse"><stop offset="0" stop-color="#3ec6a8"/><stop offset="1" stop-color="#ffe2a8"/></linearGradient><path fill="url(#H)" d="M338.492,468.404c5.675-3.737,32.38-12.476,67.508-10.237c30.083,1.917,40.79,12.391,42.5,17.334
		c1.5,4.334,0.75,8.75-1.742,11.873c-2.574,3.226-16.936,17.272-28.43,21.449s9.673-18.824,2.339-27.49s-16.825-17.071-49.5-15
		S338.492,468.404,338.492,468.404z"/><linearGradient id="I" x1="362.166" x2="417.753" y1="462.904" y2="462.904" gradientUnits="userSpaceOnUse"><stop offset="0" stop-color="#7d59d0"/><stop offset="1" stop-color="#7c18a1"/></linearGradient><path fill="url(#I)" d="M417.753,459.48c-3.545-0.584-7.444-1.039-11.753-1.313c-11.929-0.76-22.883-0.252-32.375,0.894
		l-11.458,6.107l13.935,0.931c8.94-0.296,15.968,0.271,21.604,1.443l6.878,0.459L417.753,459.48z"/><linearGradient id="J" x1="353.096" x2="421.252" y1="514.15" y2="514.15" gradientUnits="userSpaceOnUse"><stop offset="0" stop-color="#a281ff"/><stop offset="1" stop-color="#ff57bd"/></linearGradient><path fill="url(#J)" d="M353.096,506c0.611,9.103,8.168,16.301,17.425,16.301h33.305c9.257,0,16.814-7.198,17.425-16.301
		H353.096z"/><linearGradient id="K" x1="347.053" x2="408.717" y1="457.276" y2="518.94" gradientUnits="userSpaceOnUse"><stop offset="0" stop-color="#fff"/><stop offset="1" stop-color="#6efffb"/></linearGradient><path fill="url(#K)" d="M426.835,495.917c-3.335,10.084-7.691,13.333-12.751,14.75c-8.333,2.333-17.333,2.917-36.497,2.917
		c-15.649,0-32.586-3.917-32.586-3.917c-11.833-2.833-13.563-6.917-15.833-16.5c0,0-0.787-4.82-1-7.24
		c-1.167-13.26,6.14-16.418,15.167-19.176c9-2.75,15.833-4.333,32.667-4.417c19-0.095,36.333,5.166,36.333,5.166
		c10.219,3.688,15.339,7.567,15.89,17.007C428.417,487.833,427.69,493.331,426.835,495.917z"/><linearGradient id="L" x1="335.569" x2="419.511" y1="488.198" y2="488.198" gradientUnits="userSpaceOnUse"><stop offset="0" stop-color="#3ec6a8"/><stop offset="1" stop-color="#ffe2a8"/></linearGradient><path fill="url(#L)" d="M338.25,476.875c3.076-2.186,18.917-7.54,39.917-7.374s38,5.248,40.5,10.915
		s-1.029,18.266-4.362,21.599S397,507.5,379.5,506.75s-36.608-3.466-39.833-7.583C335.75,494.167,333.5,480.25,338.25,476.875z"/><linearGradient id="M" x1="434.075" x2="449.269" y1="485.563" y2="485.563" gradientUnits="userSpaceOnUse"><stop offset="0" stop-color="#a281ff"/><stop offset="1" stop-color="#ff57bd"/></linearGradient><path fill="url(#M)" d="M446.758,487.374c2.492-3.123,3.242-7.539,1.742-11.873c-0.322-0.931-0.963-2.057-1.991-3.284
		c-7.117,1.622-12.434,7.978-12.434,15.587v7.667c0,1.182,0.137,2.33,0.38,3.438C440.47,494.082,445.358,489.128,446.758,487.374z"/><path fill="#FFF" d="M380.75,500.918c-4.301,0-8.01,2.17-9.79,5.315c2.839,0.222,5.71,0.396,8.54,0.517
		c3.999,0.172,7.809,0.189,11.354,0.078C389.227,503.362,385.318,500.918,380.75,500.918z"/><linearGradient id="N" x1="351.051" x2="365.949" y1="495.843" y2="487.242" gradientUnits="userSpaceOnUse"><stop offset="0" stop-color="#3369ff"/><stop offset=".119" stop-color="#305ddb"/><stop offset=".356" stop-color="#2c4799"/><stop offset=".571" stop-color="#283665"/><stop offset=".757" stop-color="#25293f"/><stop offset=".906" stop-color="#242228"/><stop offset="1" stop-color="#231f20"/></linearGradient><polygon fill="url(#N)" points="365.832 487.039 363.003 484.211 358.5 488.715 353.997 484.211 351.168 487.039 355.672 491.543 351.168 496.046 353.997 498.874 358.5 494.371 363.003 498.874 365.832 496.046 361.328 491.543"/><path fill="#7E59D1" d="M363.003,499.374c-0.128,0-0.256-0.049-0.354-0.146l-4.15-4.149l-4.15,4.149
			c-0.195,0.195-0.512,0.195-0.707,0l-2.828-2.828c-0.094-0.094-0.146-0.221-0.146-0.354s0.053-0.26,0.146-0.354l4.15-4.149
			l-4.15-4.15c-0.195-0.195-0.195-0.512,0-0.707l2.828-2.828c0.188-0.188,0.52-0.188,0.707,0l4.15,4.15l4.15-4.15
			c0.188-0.188,0.52-0.188,0.707,0l2.828,2.828c0.195,0.195,0.195,0.512,0,0.707l-4.15,4.15l4.15,4.149
			c0.094,0.094,0.146,0.221,0.146,0.354s-0.053,0.26-0.146,0.354l-2.828,2.828C363.259,499.325,363.131,499.374,363.003,499.374z
			 M358.5,493.871c0.128,0,0.256,0.049,0.354,0.146l4.15,4.149l2.121-2.121l-4.15-4.149c-0.195-0.195-0.195-0.512,0-0.707l4.15-4.15
			l-2.121-2.121l-4.15,4.15c-0.188,0.188-0.52,0.188-0.707,0l-4.15-4.15l-2.121,2.121l4.15,4.15
			c0.094,0.094,0.146,0.221,0.146,0.354s-0.053,0.26-0.146,0.354l-4.15,4.149l2.121,2.121l4.15-4.149
			C358.244,493.92,358.372,493.871,358.5,493.871z"/><g><linearGradient id="O" x1="395.301" x2="410.198" y1="497.424" y2="488.823" gradientUnits="userSpaceOnUse"><stop offset="0" stop-color="#3369ff"/><stop offset=".119" stop-color="#305ddb"/><stop offset=".356" stop-color="#2c4799"/><stop offset=".571" stop-color="#283665"/><stop offset=".757" stop-color="#25293f"/><stop offset=".906" stop-color="#242228"/><stop offset="1" stop-color="#231f20"/></linearGradient><polygon fill="url(#O)" points="410.082 488.621 407.253 485.793 402.75 490.297 398.247 485.793 395.418 488.621 399.922 493.125 395.418 497.628 398.247 500.456 402.75 495.953 407.253 500.456 410.082 497.628 405.578 493.125"/><path fill="#7E59D1" d="M407.253,500.956c-0.128,0-0.256-0.049-0.354-0.146l-4.15-4.149l-4.15,4.149
			c-0.195,0.195-0.512,0.195-0.707,0l-2.828-2.828c-0.094-0.094-0.146-0.221-0.146-0.354s0.053-0.26,0.146-0.354l4.15-4.149
			l-4.15-4.15c-0.195-0.195-0.195-0.512,0-0.707l2.828-2.828c0.188-0.188,0.52-0.188,0.707,0l4.15,4.15l4.15-4.15
			c0.188-0.188,0.52-0.188,0.707,0l2.828,2.828c0.195,0.195,0.195,0.512,0,0.707l-4.15,4.15l4.15,4.149
			c0.094,0.094,0.146,0.221,0.146,0.354s-0.053,0.26-0.146,0.354l-2.828,2.828C407.509,500.907,407.381,500.956,407.253,500.956z
			 M402.75,495.453c0.128,0,0.256,0.049,0.354,0.146l4.15,4.149l2.121-2.121l-4.15-4.149c-0.195-0.195-0.195-0.512,0-0.707
			l4.15-4.15l-2.121-2.121l-4.15,4.15c-0.188,0.188-0.52,0.188-0.707,0l-4.15-4.15l-2.121,2.121l4.15,4.15
			c0.094,0.094,0.146,0.221,0.146,0.354s-0.053,0.26-0.146,0.354l-4.15,4.149l2.121,2.121l4.15-4.149
			C402.494,495.502,402.622,495.453,402.75,495.453z"/></g><path fill="#00CFFF" d="M418.129,459.261c-7.161-9.717-11.673-16.489-15.629-20.198c-2.656-2.489-5.722-3.318-8.092-3.593
		l20.53,25.655L418.129,459.261z"/></g><g><linearGradient id="P" x1="415.948" x2="448.661" y1="536.313" y2="569.025" gradientUnits="userSpaceOnUse"><stop offset="0" stop-color="#c91c91"/><stop offset="1" stop-color="#fe6a77"/></linearGradient><path fill="url(#P)" d="M449.508,544.809c-0.71-3.418-2.494-7.005-5.252-9.686c-2.739-2.705-6.176-4.433-9.663-5.273
		c-1.755-0.425-3.544-0.64-5.388-0.635c-0.924,0.006-4.2,0.319-4.696,0.428c-0.016,0.003-0.032,0.011-0.048,0.015
		c-3.444,0.621-6.059,3.628-6.059,7.251c0,4.073,3.302,7.375,7.375,7.375c1.029,0,2.008-0.212,2.897-0.593
		c0.895-0.297,1.991-0.539,3.125-0.396c1.409,0.17,2.668,0.664,3.605,1.379c0.942,0.716,1.672,1.7,2.164,3.139
		c0.484,1.448,0.663,3.228,0.536,5.292c-0.238,4.087-1.504,8.424-3.358,12.602c-0.928,2.094-2.003,4.158-3.194,6.168
		c-0.595,1.005-1.219,1.997-1.867,2.967l-0.99,1.435c-0.321,0.453-0.705,0.966-0.97,1.314l6.55,5.822
		c0.559-0.595,0.966-1.053,1.424-1.579c0.444-0.512,0.875-1.026,1.299-1.546c0.847-1.038,1.663-2.098,2.451-3.18
		c1.577-2.165,3.044-4.425,4.381-6.8c2.654-4.746,4.854-9.979,5.798-15.861C450.086,551.546,450.243,548.231,449.508,544.809z"/><path fill="#00CFFF" d="M430.626 543.773c-.236 0-.446-.168-.491-.408-.257-1.381-.113-6.161 2.621-9.345 1.674-1.949 3.968-2.884 6.836-2.8.276.009.493.24.483.516-.009.276-.266.465-.516.484-2.537-.083-4.577.742-6.045 2.451-2.466 2.872-2.621 7.306-2.396 8.51.05.271-.129.533-.4.583C430.687 543.771 430.656 543.773 430.626 543.773zM437.757 548.963c-.046 0-.093-.006-.139-.02-.265-.077-.418-.354-.341-.62.511-1.761 3.037-4.148 5.984-4.896 1.786-.454 4.412-.495 6.763 1.883.194.196.192.513-.004.707-.197.195-.514.192-.707-.004-2.018-2.041-4.271-2.005-5.806-1.617-2.576.654-4.844 2.742-5.27 4.207C438.174 548.821 437.974 548.963 437.757 548.963zM447.539 562.85c-.214 0-.412-.138-.478-.353-.525-1.697-1.636-2.902-3.303-3.58-2.301-.938-5.161-.589-6.26.01-.244.131-.547.041-.678-.2-.132-.243-.042-.546.2-.679 1.251-.682 4.378-1.172 7.115-.058 1.93.785 3.272 2.242 3.881 4.212.082.264-.066.544-.33.625C447.637 562.843 447.587 562.85 447.539 562.85zM442.938 573.063c-.206 0-.398-.128-.471-.333-.95-2.678-2.753-3.777-4.099-4.229-2.029-.681-3.97-.275-4.512.082-.229.152-.541.088-.692-.143s-.088-.541.143-.693c.81-.533 3.083-.965 5.379-.194 1.556.521 3.638 1.785 4.723 4.843.092.26-.044.546-.304.639C443.049 573.054 442.993 573.063 442.938 573.063z"/><linearGradient id="Q" x1="414.841" x2="440.389" y1="588.761" y2="588.761" gradientTransform="rotate(-4.726 422.362 587.473)" gradientUnits="userSpaceOnUse"><stop offset="0" stop-color="#00e2ec"/><stop offset="1" stop-color="#0090b2"/></linearGradient><path fill="url(#Q)" d="M439.477,597.84l-5.918-0.985l0.961-5.77c0.274-1.647-0.11-3.303-1.08-4.66
			c-0.971-1.358-2.412-2.258-4.059-2.532c-3.396-0.563-6.625,1.739-7.192,5.14l-0.948,5.7l-5.919-0.986l0.949-5.699
			c1.11-6.663,7.429-11.184,14.096-10.072c3.228,0.538,6.053,2.3,7.955,4.962c1.903,2.663,2.654,5.906,2.117,9.134L439.477,597.84z"/></g><g><linearGradient id="R" x1="497.604" x2="596.646" y1="43.605" y2="142.646" gradientUnits="userSpaceOnUse"><stop offset="0" stop-color="#0ff"/><stop offset="1" stop-color="#0090b2"/></linearGradient><path fill="url(#R)" d="M616.5,119.827c0,3.952-3.203,7.155-7.154,7.155H484.904c-3.951,0-7.154-3.203-7.154-7.155V66.423
			c0-3.952,3.203-7.155,7.154-7.155h124.441c3.951,0,7.154,3.203,7.154,7.155V119.827z"/><linearGradient id="S" x1="474.75" x2="619.5" y1="93.125" y2="93.125" gradientUnits="userSpaceOnUse"><stop offset="0" stop-color="#c7a0f6"/><stop offset="1" stop-color="#fde1a7"/></linearGradient><path fill="url(#S)" d="M609.346,129.982H484.904c-5.599,0-10.154-4.556-10.154-10.155V66.423
			c0-5.599,4.556-10.155,10.154-10.155h124.441c5.599,0,10.154,4.556,10.154,10.155v53.404
			C619.5,125.426,614.944,129.982,609.346,129.982z M484.904,62.268c-2.291,0-4.154,1.864-4.154,4.155v53.404
			c0,2.291,1.863,4.155,4.154,4.155h124.441c2.291,0,4.154-1.864,4.154-4.155V66.423c0-2.291-1.863-4.155-4.154-4.155H484.904z"/><path fill="#FDE1A7" d="M602 76.125c0 1.174-.951 2.125-2.125 2.125h-105.5c-1.174 0-2.125-.951-2.125-2.125l0 0c0-1.174.951-2.125 2.125-2.125h105.5C601.049 74 602 74.951 602 76.125L602 76.125zM534.708 88.75h-9.541-6.5-24.292c-1.174 0-2.125.951-2.125 2.125S493.201 93 494.375 93h24.292 6.5 9.541c1.174 0 2.125-.951 2.125-2.125S535.882 88.75 534.708 88.75zM599.875 88.75h-15.541H582.5h-7.459c-1.174 0-2.125.951-2.125 2.125S573.867 93 575.041 93h7.459 1.834 15.541c1.174 0 2.125-.951 2.125-2.125S601.049 88.75 599.875 88.75zM561.541 88.75h-2.874H553.5h-6.625c-1.174 0-2.125.951-2.125 2.125S545.701 93 546.875 93h6.625 5.167 2.874c1.174 0 2.125-.951 2.125-2.125S562.715 88.75 561.541 88.75zM599.875 103.5h-2.874-5.167-6.625c-1.174 0-2.125.951-2.125 2.125s.951 2.125 2.125 2.125h6.625 5.167 2.874c1.174 0 2.125-.951 2.125-2.125S601.049 103.5 599.875 103.5zM569.75 103.5h-35.875-28.5-11c-1.174 0-2.125.951-2.125 2.125s.951 2.125 2.125 2.125h11 28.5 35.875c1.174 0 2.125-.951 2.125-2.125S570.924 103.5 569.75 103.5z"/></g><g><linearGradient id="T" x1="506.184" x2="556.918" y1="116.933" y2="167.668" gradientUnits="userSpaceOnUse"><stop offset="0" stop-color="#c91c91"/><stop offset="1" stop-color="#fe6a77"/></linearGradient><path fill="url(#T)" d="M558.25,138.5c0-16.845-13.655-30.5-30.5-30.5s-30.5,13.655-30.5,30.5s13.655,30.5,30.5,30.5
		c0.514,0,1.024-0.014,1.532-0.039l0,0L541.586,183v-17.321l0,0C551.474,160.635,558.25,150.362,558.25,138.5z"/><path fill="#FDE1A7" d="M539.745,129.014c0,1.602-0.229,3.047-0.688,4.336s-1.104,2.402-1.934,3.34s-1.826,1.689-2.988,2.256
			c-1.162,0.567-2.446,0.928-3.853,1.084l-0.234,5.713c-0.02,0.352-0.298,0.615-0.835,0.791s-1.313,0.264-2.329,0.264
			c-0.645,0-1.187-0.015-1.626-0.044s-0.786-0.083-1.04-0.161c-0.254-0.078-0.439-0.186-0.557-0.322
			c-0.117-0.136-0.186-0.312-0.205-0.527l-0.264-6.914c-0.02-0.625,0.01-1.132,0.088-1.523c0.078-0.391,0.22-0.703,0.425-0.938
			s0.464-0.396,0.776-0.483s0.684-0.132,1.113-0.132h0.41c1.035,0,1.929-0.166,2.681-0.498c0.752-0.332,1.372-0.771,1.86-1.318
			c0.488-0.546,0.845-1.191,1.069-1.934c0.225-0.742,0.337-1.533,0.337-2.373c0-0.938-0.132-1.797-0.396-2.578
			c-0.264-0.781-0.664-1.455-1.201-2.021c-0.537-0.566-1.211-1-2.021-1.304c-0.811-0.303-1.763-0.454-2.856-0.454
			c-0.996,0-1.875,0.098-2.637,0.293c-0.762,0.195-1.416,0.41-1.963,0.645s-1.001,0.45-1.362,0.645
			c-0.361,0.195-0.64,0.293-0.835,0.293c-0.137,0-0.264-0.044-0.381-0.132s-0.215-0.249-0.293-0.483s-0.142-0.566-0.19-0.996
			c-0.049-0.429-0.073-0.977-0.073-1.641c0-0.684,0.029-1.182,0.088-1.494c0.059-0.312,0.186-0.566,0.381-0.762
			c0.195-0.195,0.566-0.425,1.113-0.688s1.201-0.508,1.963-0.732c0.762-0.224,1.611-0.415,2.549-0.571
			c0.938-0.156,1.914-0.234,2.93-0.234c2.305,0,4.277,0.318,5.918,0.952c1.641,0.635,2.983,1.49,4.028,2.563
			c1.045,1.074,1.812,2.305,2.3,3.691C539.501,126.006,539.745,127.471,539.745,129.014z M531.073,154.121
			c0,0.801-0.063,1.475-0.19,2.021c-0.127,0.547-0.352,0.986-0.674,1.318c-0.322,0.333-0.752,0.571-1.289,0.718
			s-1.196,0.22-1.978,0.22c-0.82,0-1.494-0.073-2.021-0.22s-0.952-0.385-1.274-0.718c-0.322-0.332-0.547-0.771-0.674-1.318
			c-0.127-0.546-0.19-1.22-0.19-2.021c0-0.82,0.063-1.509,0.19-2.065s0.352-1.006,0.674-1.348c0.322-0.341,0.747-0.586,1.274-0.732
			s1.201-0.22,2.021-0.22c0.781,0,1.44,0.073,1.978,0.22s0.967,0.391,1.289,0.732c0.322,0.342,0.547,0.791,0.674,1.348
			S531.073,153.301,531.073,154.121z"/></g><g><linearGradient id="U" x1="458.11" x2="501.237" y1="242.141" y2="285.268" gradientUnits="userSpaceOnUse"><stop offset="0" stop-color="#0ff"/><stop offset=".082" stop-color="#25eced"/><stop offset=".211" stop-color="#58d1d4"/><stop offset=".342" stop-color="#84bbbf"/><stop offset=".473" stop-color="#a8a8ad"/><stop offset=".604" stop-color="#c49a9f"/><stop offset=".735" stop-color="#d88f96"/><stop offset=".867" stop-color="#e48990"/><stop offset="1" stop-color="#e8878e"/></linearGradient><path fill="url(#U)" d="M498.667,268c-5.5-11.667-7.166-12.833-12-17.5s-8.352-8.274-9.334-7.833
		c-1.302,0.583-0.999,4,0.084,6.917s2.916,4.417,2.916,4.417s-3.249-0.333-10.166-3.417s-12.583-7.917-13.75-6.75
		s1.166,5.167,1.166,5.167s-1.863-1.188-2.333,0.167c-0.227,0.654,0.84,2.913,1.75,4.333c0.829,1.294,3.083,3.583,3.083,3.583
		s-0.499,1,0.834,3.167s7.583,8.5,14.083,11.563c4.871,2.295,9.917,2.688,9.917,2.688s-0.41,5.484-0.224,14.506
		c4.549-0.619,12.072-2.242,18.904-6.1C501.995,276.908,500.288,271.438,498.667,268z"/><path fill="#1AA9E8" d="M457.787 248.851c.403.509.931.964 1.443 1.413.52.446 1.056.876 1.6 1.296 1.089.836 2.209 1.645 3.36 2.356.236.143.312.451.169.687-.144.236-.451.312-.688.168-.008-.005-.021-.013-.028-.019-1.158-.814-2.236-1.696-3.291-2.611-.526-.458-1.043-.927-1.546-1.413-.499-.493-1.003-.976-1.428-1.579-.081-.115-.054-.272.061-.353.11-.077.262-.055.344.049L457.787 248.851zM459.935 256.875c.136-.11.381-.28.615-.338.233-.069.48-.092.712-.068.469.04.884.201 1.273.376.773.373 1.476.769 2.191 1.245.692.48 1.331 1.004 1.982 1.475.64.461 1.335.923 1.962 1.026l.023.003c.273.045.458.302.413.575-.044.272-.302.458-.574.413-.012-.002-.024-.004-.036-.007-.997-.239-1.658-.804-2.321-1.313-.653-.524-1.26-1.074-1.893-1.561-.626-.465-1.338-.913-2.024-1.286-.692-.361-1.446-.602-2.027-.124-.108.089-.27.074-.359-.035s-.074-.27.035-.36c0 0 0 0 .001 0L459.935 256.875zM480.388 253.825c1.942.458 3.801 1.354 5.483 2.432l.01.006c.233.149.301.459.151.692s-.459.301-.692.151c-.015-.009-.029-.02-.043-.031-1.519-1.218-3.168-2.246-5.019-2.902-.096-.034-.146-.139-.111-.234.031-.089.124-.138.214-.118L480.388 253.825z"/><linearGradient id="V" x1="484.693" x2="540.307" y1="314.909" y2="314.909" gradientUnits="userSpaceOnUse"><stop offset="0" stop-color="#7d59d0"/><stop offset="1" stop-color="#7c18a1"/></linearGradient><path fill="url(#V)" d="M539.42,286.226c-1.253-4.226-6.17-4.726-6.17-4.726c-2.417,3-22.583,33.167-22.583,33.167
		s-3.234-17.406-7.069-31.761c-6.832,3.857-14.355,5.481-18.904,6.1c0.151,7.262,0.688,16.814,2.141,27.661
		c3.041,22.708,7.414,30.442,12.666,31.5c6,1.208,19.834-5,31.334-12.833S540.673,290.451,539.42,286.226z"/><path fill="#3369FF" d="M503.245,338.506c-0.789,0-1.438-0.201-1.915-0.637c-8.067-7.357-10.131-48.468-10.215-50.214
			c-0.014-0.276,0.199-0.51,0.475-0.523c0.306-0.017,0.51,0.2,0.523,0.476c0.021,0.423,2.126,42.442,9.891,49.523
			c3.897,3.563,25.651-14.689,39.316-27.824c0.197-0.191,0.516-0.187,0.707,0.014c0.191,0.199,0.186,0.516-0.014,0.707
			C538.755,313.159,512.106,338.506,503.245,338.506z"/><linearGradient id="W" x1="484.985" x2="499.04" y1="299.8" y2="299.8" gradientUnits="userSpaceOnUse"><stop offset="0" stop-color="#3369ff"/><stop offset="1" stop-color="#7c18a1"/></linearGradient><path fill="url(#W)" d="M498.995,299.574l-0.682-3.477c-0.251-1.279-1.492-2.114-2.772-1.863
			c0,0-5.922,1.839-10.556,2.521c0.143,2.707,0.337,5.592,0.605,8.655c4.343-0.234,11.54-3.063,11.54-3.063
			C498.411,302.097,499.246,300.855,498.995,299.574z"/><path fill="#3369FF" d="M485.591,305.91c-0.258,0-0.476-0.197-0.498-0.457c-0.249-2.842-0.453-5.76-0.606-8.672
			c-0.014-0.258,0.171-0.483,0.426-0.521c4.542-0.668,10.422-2.485,10.48-2.503c0.238-0.049,0.423-0.067,0.605-0.067
			c1.363,0,2.543,0.972,2.806,2.312l0.682,3.477c0.147,0.751-0.007,1.514-0.434,2.148s-1.074,1.065-1.825,1.212
			c-0.21,0.091-7.235,2.835-11.608,3.071C485.608,305.91,485.6,305.91,485.591,305.91z M485.509,297.18
			c0.141,2.583,0.321,5.167,0.537,7.695c4.249-0.394,10.834-2.966,10.902-2.993c0.575-0.121,0.996-0.401,1.274-0.814
			c0.277-0.413,0.378-0.91,0.282-1.398l-0.682-3.477c-0.195-0.989-1.165-1.674-2.187-1.469
			C495.63,294.73,490.055,296.454,485.509,297.18z"/></g><g><linearGradient id="X" x1="540.076" x2="612.462" y1="269.569" y2="269.569" gradientUnits="userSpaceOnUse"><stop offset="0" stop-color="#042637"/><stop offset="1" stop-color="#2335e0"/></linearGradient><path fill="url(#X)" d="M606.693,263.807c-3.443-3.432-9.193-7.307-20.068-10.432s-42.375-0.125-46,8.5
		s11.418,21.193,24.146,24.159S608.667,285,612.375,272.5C613.286,269.428,606.693,263.807,606.693,263.807z"/><linearGradient id="Y" x1="555" x2="593.667" y1="267.307" y2="267.307" gradientUnits="userSpaceOnUse"><stop offset="0" stop-color="#00c4c8"/><stop offset=".017" stop-color="#07c2c6"/><stop offset=".171" stop-color="#42b3b8"/><stop offset=".323" stop-color="#75a5ab"/><stop offset=".472" stop-color="#9e9aa0"/><stop offset=".617" stop-color="#be9298"/><stop offset=".756" stop-color="#d58c93"/><stop offset=".886" stop-color="#e3888f"/><stop offset="1" stop-color="#e8878e"/></linearGradient><path fill="url(#Y)" d="M589,247.833c-1.625,5.417,2.834,27.667,4.667,34c-5.292,4.042-12.732,5.775-22.167,5.167
		c-11.625-0.75-16.5-5.333-16.5-5.333s6.625-7.792,8.166-23.333C564.531,244.564,589,247.833,589,247.833z"/><radialGradient id="Z" cx="582.813" cy="233.364" r="53.768" gradientTransform="matrix(.3767 -.9263 .5921 .2407 225.122 717.072)" gradientUnits="userSpaceOnUse"><stop offset="0" stop-color="#e8878e"/><stop offset=".133" stop-color="#e48990"/><stop offset=".265" stop-color="#d88f96"/><stop offset=".396" stop-color="#c49a9f"/><stop offset=".527" stop-color="#a8a8ad"/><stop offset=".658" stop-color="#84bbbf"/><stop offset=".789" stop-color="#58d1d4"/><stop offset=".918" stop-color="#25eced"/><stop offset="1" stop-color="#0ff"/></radialGradient><path fill="url(#Z)" d="M593.556,240.12c5.104-6.932,10.798-18.471,1.778-31.037c-5.084-7.083-15.339-10.156-20.959-9.583
		c-13.735,1.4-16.124,8.75-16.124,8.75c-6.334,6.917-16,38.75-2.751,49c11.399,8.819,25.791-1.69,31.019-8.051
		c0.991,0.812,2.258,1.299,3.639,1.299c3.175,0,5.748-2.574,5.748-5.749C595.905,242.847,594.979,241.167,593.556,240.12z"/><linearGradient id="aa" x1="559.771" x2="601.945" y1="223.231" y2="198.882" gradientUnits="userSpaceOnUse"><stop offset="0" stop-color="#3369ff"/><stop offset=".119" stop-color="#305ddb"/><stop offset=".356" stop-color="#2c4799"/><stop offset=".571" stop-color="#283665"/><stop offset=".757" stop-color="#25293f"/><stop offset=".906" stop-color="#242228"/><stop offset="1" stop-color="#231f20"/></linearGradient><path fill="url(#aa)" d="M590.834,214.917c-3.702,0.081-14.73,4.869-16.646,1.521c-1.896-3.313,5.508-7.127,4.125-9.5
		c-1.688-2.896-7.45,0.208-12.188,2.375c-5.875,2.688-10.029,2.546-15.75-3.438c-5.438-5.688-5.667-12.625-2.625-14.875
		c3.56-2.632,7.583-1.833,9.938-0.438c2.381,1.412,5.527,5.445,8.25,3.5c2.479-1.771-0.531-6.475,3-8.125
		c3.521-1.646,9.604,0.792,12.729,4.979s3.202,5.689,8.146,6.396c6.563,0.938,19.475,4.585,20.188,21.604
		c0.583,13.917-8.552,19.319-11.875,21.41s0.507-12.406-0.375-18.16C597.313,219.313,594.668,214.833,590.834,214.917z"/><linearGradient id="ab" x1="548.917" x2="566.018" y1="233.058" y2="233.058" gradientUnits="userSpaceOnUse"><stop offset="0" stop-color="#ff57bd"/><stop offset="1" stop-color="#dd8a91"/></linearGradient><path fill="url(#ab)" d="M565.834,225.5c-0.98-0.49-6.501,2.667-10.167,5.583c-3.29,2.618-7.174,4.05-6.712,5.817
		s6.879,3.767,6.879,3.767s1.267-3.508,4.417-7.25C563.583,229.458,566.834,226,565.834,225.5z"/><path fill="#9F36AD" d="M558.022,251.1c-0.308,0-0.642-0.034-1.002-0.111c-3.365-0.718-4.722-5.033-4.475-7.049
			c0.033-0.274,0.284-0.474,0.557-0.436c0.274,0.033,0.47,0.283,0.436,0.557c-0.184,1.505,0.85,5.344,3.691,5.951
			c2.27,0.481,2.814-1.136,2.836-1.205c0.084-0.263,0.36-0.413,0.629-0.324c0.263,0.084,0.408,0.365,0.324,0.628
			C560.776,249.868,559.861,251.1,558.022,251.1z"/><path fill="#212F66" d="M572.057,236.397c-0.914,1.06-2.515,1.177-3.573,0.262l0,0c-1.061-0.916-1.178-2.516-0.263-3.575
		l4.063-4.704c0.914-1.06,2.515-1.177,3.573-0.262l0,0c1.061,0.916,1.178,2.516,0.263,3.575L572.057,236.397z"/><path fill="#00E2EC" d="M570.492,234.586c-0.336,0.39-0.925,0.433-1.314,0.097l0,0c-0.389-0.336-0.432-0.924-0.096-1.314
		l1.493-1.729c0.337-0.389,0.924-0.433,1.313-0.096l0,0c0.39,0.336,0.433,0.925,0.096,1.314L570.492,234.586z"/><path fill="#212F66" d="M557.934,226.313c-0.895,1.038-2.462,1.152-3.498,0.257l0,0c-1.038-0.896-1.153-2.463-0.257-3.5
		l3.978-4.605c0.895-1.038,2.462-1.153,3.498-0.257l0,0c1.038,0.896,1.153,2.463,0.257,3.5L557.934,226.313z"/><path fill="#00E2EC" d="M556.402,224.541c-0.329,0.381-0.905,0.423-1.287,0.095l0,0c-0.381-0.33-0.423-0.905-0.094-1.287
		l1.462-1.693c0.33-0.381,0.904-0.423,1.286-0.094l0,0c0.382,0.33,0.424,0.906,0.094,1.287L556.402,224.541z"/><linearGradient id="ac" x1="590.834" x2="606.677" y1="228.503" y2="228.503" gradientUnits="userSpaceOnUse"><stop offset="0" stop-color="#994574"/><stop offset="1" stop-color="#43256f"/></linearGradient><path fill="url(#ac)" d="M606.667,226.417c-0.542-13.104-15.833-11.5-15.833-11.5s2.541,1.771,3.417,7.5
		c1.045,6.835-0.929,13.61-2.58,16.792c1.577,0.43,2.882,1.512,3.609,2.942C598.561,240.281,607.008,234.652,606.667,226.417z"/></g><g><linearGradient id="ad" x1="572.332" x2="572.332" y1="569.793" y2="397.266" gradientUnits="userSpaceOnUse"><stop offset="0" stop-color="#042637"/><stop offset="1" stop-color="#2335e0"/></linearGradient><path fill="url(#ad)" d="M611.945,568.923c-0.077-14.402-0.112-29.57-0.112-37.09c0-16.5,1.667-70.334,0.167-85.5
		s-5-44.666-5-44.666s-28.473,3.464-46.016,2.114c-18.817-1.447-28.076-6.516-28.076-6.516c-0.236,4.256-1.949,46.625,0.203,71.507
		c2.832,32.734,9.061,78.213,12.039,98.853c4.039,1.469,12.684,2.865,21.172,0.748c0.633-22.287,1.682-52.35,2.011-62.873
		c0.5-16,2.834-44,2.834-44s5.999,40.499,9.333,60.333c2.037,12.117,5.005,31.319,7.35,47.13
		C593.188,569.911,602.767,570.232,611.945,568.923z"/><linearGradient id="ae" x1="528.561" x2="591.977" y1="341.424" y2="341.424" gradientUnits="userSpaceOnUse"><stop offset="0" stop-color="#c91c91"/><stop offset="1" stop-color="#fe6a77"/></linearGradient><path fill="url(#ae)" d="M528.957,394.141c3.613,3.647,16.318,13.994,62.318,7.744c-1.583-16-6.441-49.552-5.108-62.385
		s5.81-54.438,5.81-54.438s-15.143,3.604-26.81,1.104S548.333,279,548.333,279s-9.583,21.5-15.583,63
		S528.957,394.141,528.957,394.141z"/><path fill="#FFA2BA" d="M559.751,404.234c-0.263,0-0.482-0.203-0.499-0.469c-1.007-15.894,3.969-103.505,5.418-117.65
			c0.028-0.275,0.272-0.475,0.548-0.447c0.274,0.028,0.475,0.274,0.446,0.548c-1.447,14.13-6.419,101.625-5.414,117.486
			c0.018,0.275-0.191,0.513-0.468,0.53C559.771,404.234,559.761,404.234,559.751,404.234z"/><path fill="#212F66" d="M571.748,465.912c-0.243,0-0.456-0.178-0.493-0.426c-0.456-3.045-1.079-7.59-1.681-11.985
			c-0.857-6.262-1.829-13.36-2.043-13.951c-0.307-0.797-5.667-5.664-7.972-7.537c-0.214-0.174-0.247-0.488-0.072-0.703
			c0.174-0.215,0.488-0.248,0.703-0.072c1.129,0.917,7.795,6.674,8.277,7.962c0.235,0.628,0.95,5.792,2.098,14.167
			c0.601,4.392,1.223,8.933,1.678,11.972c0.041,0.273-0.147,0.527-0.42,0.568C571.798,465.91,571.773,465.912,571.748,465.912z"/><linearGradient id="af" x1="527.195" x2="591.746" y1="399.669" y2="399.669" gradientUnits="userSpaceOnUse"><stop offset="0" stop-color="#fe6a77"/><stop offset="1" stop-color="#ff57bd"/></linearGradient><path fill="url(#af)" d="M530.719,392.386c3.373,3.291,8.185,5.193,13.113,6.415c4.967,1.21,10.177,1.735,15.404,1.914
		c10.48,0.321,21.074-0.72,31.568-2.298l0.941,6.936c-10.819,1.279-21.77,2.023-32.804,1.341c-5.51-0.363-11.05-1.084-16.503-2.593
		c-2.723-0.761-5.423-1.725-8.024-3.03c-2.586-1.297-5.127-2.988-7.22-5.175L530.719,392.386z"/><linearGradient id="ag" x1="550.316" x2="580.44" y1="284.496" y2="284.496" gradientUnits="userSpaceOnUse"><stop offset="0" stop-color="#fe6a77"/><stop offset="1" stop-color="#ff57bd"/></linearGradient><path fill="url(#ag)" d="M554.697,278.772c0.019,0.027,0.431,0.352,0.82,0.589c0.406,0.255,0.857,0.507,1.324,0.745
		c0.935,0.478,1.936,0.903,2.956,1.28c2.047,0.751,4.19,1.3,6.357,1.655c4.339,0.711,8.786,0.62,13.07-0.238l1.215,6.894
		c-5.133,0.804-10.4,0.684-15.461-0.368c-2.531-0.526-5.013-1.273-7.415-2.272c-1.202-0.503-2.384-1.063-3.552-1.723
		c-0.584-0.331-1.164-0.686-1.754-1.092c-0.595-0.435-1.172-0.805-1.942-1.68L554.697,278.772z"/><path fill="#FFA2BA" d="M567.545 407.452c-2.943 0-5.848-.088-8.634-.26-6.425-.424-11.7-1.253-16.605-2.61-3.048-.852-5.702-1.854-8.115-3.064-2.943-1.477-5.419-3.252-7.356-5.276-.188-.196-.185-.508.009-.7l3.523-3.51c.193-.192.505-.195.702-.003 2.86 2.79 7.074 4.848 12.884 6.287 4.423 1.077 9.429 1.699 15.301 1.899 1.276.039 2.558.059 3.839.059 8.192 0 16.975-.747 27.639-2.351.132-.021.268.015.374.094.107.081.178.2.195.333l.941 6.936c.019.133-.018.268-.1.374-.082.105-.204.174-.337.189C582.556 406.942 574.847 407.452 567.545 407.452zM527.899 395.899c1.806 1.798 4.07 3.385 6.74 4.724 2.354 1.183 4.95 2.162 7.935 2.996 4.836 1.338 10.048 2.156 16.401 2.575 2.763.171 5.646.258 8.569.258 7.128 0 14.652-.489 23.638-1.537l-.806-5.929c-10.488 1.56-19.171 2.287-27.285 2.287-1.292 0-2.582-.02-3.871-.059-5.943-.203-11.016-.834-15.507-1.929-5.754-1.426-10.009-3.457-12.986-6.203L527.899 395.899zM573.706 290.721c-2.977 0-5.947-.304-8.828-.902-2.622-.545-5.147-1.319-7.506-2.301-1.321-.553-2.5-1.125-3.605-1.749-.647-.367-1.233-.732-1.791-1.116l-.229-.166c-.537-.387-1.093-.787-1.805-1.596-.089-.1-.133-.231-.124-.365.009-.133.071-.257.172-.344l4.381-3.789c.108-.093.252-.134.391-.118.141.018.268.095.348.212 0 0 .001-.001.001-.001.021 0 .354.255.668.447.39.245.822.488 1.291.727.867.443 1.844.865 2.902 1.256 1.974.725 4.081 1.273 6.266 1.631 4.231.694 8.654.614 12.892-.234.13-.026.268.001.38.078.111.076.187.193.21.326l1.215 6.894c.023.132-.008.269-.085.377-.078.109-.197.183-.33.204C578.272 290.542 575.981 290.721 573.706 290.721zM551.035 282.601c.478.486.877.774 1.295 1.075l.224.162c.522.359 1.084.709 1.705 1.061 1.07.604 2.215 1.159 3.499 1.696 2.299.957 4.764 1.712 7.323 2.244 4.802.998 9.869 1.147 14.778.44l-1.038-5.888c-4.197.78-8.563.83-12.747.144-2.246-.368-4.416-.933-6.448-1.68-1.097-.404-2.11-.843-3.012-1.304-.494-.252-.953-.51-1.362-.767-.085-.051-.32-.205-.54-.364L551.035 282.601z"/></g><g><linearGradient id="ah" x1="531.549" x2="567.147" y1="581.227" y2="616.826" gradientUnits="userSpaceOnUse"><stop offset="0" stop-color="#05c5da"/><stop offset="1" stop-color="#5860c4"/></linearGradient><path fill="url(#ah)" d="M545.15,567.625c0.218,1.509,0.419,2.896,0.6,4.125c2.16,14.715,3.149,21.197,2.417,23.417
		c-4.604,13.958-26.442,17.084-27.167,19.5c-0.625,2.083,0.434,4.359,1.625,5.208c4.125,2.938,33.373,0.943,37.209,0.292
		c4.666-0.792,7.416-2.667,7.5-4.167c0.065-1.165-1.333-12.667-1.5-23c-0.057-3.537,0.159-13.029,0.488-24.627
		C557.834,570.49,549.189,569.094,545.15,567.625z"/><linearGradient id="ai" x1="587.85" x2="636.763" y1="598.81" y2="598.81" gradientUnits="userSpaceOnUse"><stop offset="0" stop-color="#05c5da"/><stop offset="1" stop-color="#5860c4"/></linearGradient><path fill="url(#ai)" d="M594.5,613.5c1.166,3.667,3.417,4.001,7.417,5.917s21.251,9.832,28.001,9.249
		s6.916-2.499,6.833-4.166s-4.166-6.083-10-10.5s-13.918-9.833-14.334-11.083c-0.227-0.681-0.379-16.791-0.472-33.994
		c-9.179,1.31-18.758,0.988-24.096,0.04c1.493,10.068,2.733,18.766,3.317,23.37C592.667,604.167,593.334,609.833,594.5,613.5z"/><linearGradient id="aj" x1="593.768" x2="636.763" y1="619.666" y2="619.666" gradientUnits="userSpaceOnUse"><stop offset="0" stop-color="#a281ff"/><stop offset="1" stop-color="#ff57bd"/></linearGradient><path fill="url(#aj)" d="M601.917,619.417c4,1.916,21.251,9.832,28.001,9.249s6.916-2.499,6.833-4.166
		c-0.017-0.344-0.213-0.81-0.55-1.362c-1.461,1.054-4.351,2.365-9.284,1.696c-11.227-1.521-31.094-11.454-33.149-14.199
		c0.229,1.088,0.468,2.032,0.732,2.865C595.666,617.167,597.917,617.501,601.917,619.417z"/><linearGradient id="ak" x1="520.814" x2="567.336" y1="617.121" y2="617.121" gradientUnits="userSpaceOnUse"><stop offset="0" stop-color="#a281ff"/><stop offset="1" stop-color="#ff57bd"/></linearGradient><path fill="url(#ak)" d="M522.625,619.875c4.125,2.938,33.373,0.943,37.209,0.292c4.666-0.792,7.416-2.667,7.5-4.167
		c0.019-0.328-0.08-1.479-0.233-3.193c-2.652,1.209-8.061,3.17-17.101,4.318c-15.25,1.938-27.313-0.375-29-2.458
		C520.375,616.75,521.434,619.026,522.625,619.875z"/><linearGradient id="al" x1="597.962" x2="612.062" y1="582.448" y2="582.448" gradientUnits="userSpaceOnUse"><stop offset="0" stop-color="#8c6ae2"/><stop offset="1" stop-color="#5a55f8"/></linearGradient><path fill="url(#al)" d="M612.062,585.584c-0.018-1.994-0.035-4.095-0.051-6.271h-7.319c-3.567,0-6.481,2.768-6.729,6.271
			H612.062z"/><linearGradient id="am" x1="597.938" x2="612.156" y1="591.084" y2="591.084" gradientUnits="userSpaceOnUse"><stop offset="0" stop-color="#8c6ae2"/><stop offset="1" stop-color="#5a55f8"/></linearGradient><path fill="url(#am)" d="M612.156,594c-0.024-1.756-0.048-3.717-0.069-5.833h-14.149V594H612.156z"/><linearGradient id="an" x1="597.938" x2="612.684" y1="599.947" y2="599.947" gradientUnits="userSpaceOnUse"><stop offset="0" stop-color="#8c6ae2"/><stop offset="1" stop-color="#5a55f8"/></linearGradient><path fill="url(#an)" d="M612.196,596.583h-14.258c0.014,3.719,3.03,6.729,6.753,6.729h7.992
			c-0.131-0.154-0.232-0.294-0.267-0.396C612.334,602.666,612.26,600.313,612.196,596.583z"/><g><linearGradient id="ao" x1="546.601" x2="555.933" y1="581.465" y2="581.465" gradientUnits="userSpaceOnUse"><stop offset="0" stop-color="#5a55f8"/><stop offset="1" stop-color="#8c6ae2"/></linearGradient><path fill="url(#ao)" d="M555.933,585.375v-2.285c0-3.057-2.478-5.534-5.533-5.534h-3.799
			c0.445,3.052,0.813,5.63,1.099,7.819H555.933z"/><linearGradient id="ap" x1="547.318" x2="555.933" y1="592.611" y2="592.611" gradientUnits="userSpaceOnUse"><stop offset="0" stop-color="#5a55f8"/><stop offset="1" stop-color="#8c6ae2"/></linearGradient><path fill="url(#ap)" d="M548.024,588c0.439,3.815,0.513,6.045,0.143,7.167c-0.236,0.715-0.527,1.396-0.849,2.055h3.081
			c3.056,0,5.533-2.478,5.533-5.534V588H548.024z"/></g></g><g><linearGradient id="aq" x1="498" x2="548.5" y1="395.844" y2="395.844" gradientUnits="userSpaceOnUse"><stop offset="0" stop-color="#7c18a1"/><stop offset="1" stop-color="#042637"/></linearGradient><path fill="url(#aq)" d="M548.5,283.833c-3.181,9.826-8.239,35.018-10.667,61.667c-2.597,28.506-4.083,43.583-4.333,81.333
		c-0.338,51.021,5.55,84.654,5,85.833c-0.875,1.875-20-3.666-27.5-7.666s-13-9-13-9s10-67,16.5-106s16.5-76,17.25-86.25
		s1.5-22.25,1.5-22.25s3-3.5,8.5-2.75S548.5,283.833,548.5,283.833z"/><linearGradient id="ar" x1="527.569" x2="537.308" y1="353.78" y2="353.78" gradientUnits="userSpaceOnUse"><stop offset="0" stop-color="#7d59d0"/><stop offset="1" stop-color="#7c18a1"/></linearGradient><path fill="url(#ar)" d="M527.761,349.01l-0.182,3.457c-0.067,1.656,0.13,3.076,2.713,4.867l5.919,4.303
		c0.363-3.38,0.732-6.879,1.097-10.596l-6.428-4.907C528.959,345.25,527.828,347.354,527.761,349.01z"/><linearGradient id="as" x1="532.101" x2="541.043" y1="322.297" y2="322.297" gradientUnits="userSpaceOnUse"><stop offset="0" stop-color="#7d59d0"/><stop offset="1" stop-color="#7c18a1"/></linearGradient><path fill="url(#as)" d="M535.405,315.549c-2.405-0.924-3.052,1.221-3.119,2.876l-0.182,3.457
		c-0.067,1.656,0.67,2.699,2.875,4.159l4.66,3.226c0.441-3.382,0.912-6.688,1.403-9.884L535.405,315.549z"/><linearGradient id="at" x1="534.369" x2="556.901" y1="278.44" y2="278.44" gradientUnits="userSpaceOnUse"><stop offset="0" stop-color="#7d59d0"/><stop offset="1" stop-color="#7c18a1"/></linearGradient><path fill="url(#at)" d="M540.625,261.875c-0.25,9.75,14.25,10.625,15.875,12.792c2.359,3.146-6.333,20.666-9,20.333
		s-7.305-8.171-9.375-10.375c-1.938-2.063-3.875-4.25-3.75-5.5S538.468,264.666,540.625,261.875z"/><path fill="#3369FF" d="M545.152,293.999c-0.121,0-0.242-0.043-0.339-0.132c-0.203-0.187-0.216-0.503-0.029-0.707
			c4.43-4.817,9.46-13.631,8.344-15.71c-0.297-0.552-1.822-1.335-3.438-2.165c-4.412-2.266-11.079-5.689-10.508-12.309
			c0.024-0.275,0.278-0.478,0.541-0.455c0.275,0.023,0.479,0.266,0.455,0.541c-0.513,5.95,5.795,9.189,9.969,11.333
			c1.984,1.019,3.418,1.755,3.861,2.581c1.604,2.989-4.584,12.614-8.488,16.86C545.422,293.944,545.287,293.999,545.152,293.999z"/></g><g><linearGradient id="au" x1="576.759" x2="633" y1="403.647" y2="403.647" gradientUnits="userSpaceOnUse"><stop offset="0" stop-color="#7c18a1"/><stop offset="1" stop-color="#042637"/></linearGradient><path fill="url(#au)" d="M586.375,295.625c-1.25,4.875-7.722,53.636-9.042,103.709C576.015,449.333,577.134,517.357,579,520
		c2.001,2.834,20.584-3.083,32.667-7c11.459-3.715,21.333-9.667,21.333-9.667s-1.333-57.999-1.333-80.666S623.75,297.5,623.75,297.5
		s-7.11-8.973-19.25-10.75S586.375,295.625,586.375,295.625z"/><linearGradient id="av" x1="569.741" x2="592.75" y1="329.048" y2="329.048" gradientUnits="userSpaceOnUse"><stop offset="0" stop-color="#7d59d0"/><stop offset="1" stop-color="#7c18a1"/></linearGradient><path fill="url(#av)" d="M592.75,319.836l-20.124,7.875c-2.709,1.081-2.942,2.503-2.875,4.159l0.182,3.457
		c0.067,1.655,1.068,3.257,3.119,2.876l18.505-7.96C591.937,326.615,592.334,323.14,592.75,319.836z"/><linearGradient id="aw" x1="569.706" x2="589.554" y1="360.89" y2="360.89" gradientUnits="userSpaceOnUse"><stop offset="0" stop-color="#7d59d0"/><stop offset="1" stop-color="#7c18a1"/></linearGradient><path fill="url(#aw)" d="M589.554,352.996l-16.963,5.238c-2.709,1.081-2.942,2.503-2.875,4.159l0.182,3.457
		c0.067,1.655,1.068,3.257,3.119,2.876l15.834-5.492C589.072,359.762,589.307,356.345,589.554,352.996z"/><path fill="#3369FF" d="M571.943 338.709c-.214 0-.411-.138-.478-.352-.115-.372-.182-.768-.199-1.177l-.181-3.451c-.069-1.685.121-3.426 3.188-4.65l17.827-6.976c.259-.101.548.026.648.284s-.026.547-.283.648l-17.824 6.975c-2.468.984-2.618 2.194-2.558 3.673l.181 3.451c.014.329.065.639.155.928.082.264-.065.544-.329.625C572.042 338.702 571.992 338.709 571.943 338.709zM571.908 369.232c-.214 0-.411-.138-.478-.352-.115-.372-.182-.768-.199-1.177l-.181-3.451c-.069-1.685.121-3.426 3.188-4.65l15.164-4.684c.264-.081.543.066.625.33s-.066.544-.33.625l-15.126 4.67c-2.433.972-2.583 2.182-2.522 3.661l.181 3.451c.014.329.065.639.155.928.082.264-.065.544-.329.625C572.007 369.225 571.957 369.232 571.908 369.232z"/><path fill="#3369FF" d="M589.505,520.026c-0.246,0-0.46-0.182-0.494-0.432c-6.613-48.217-2.636-192.607,8.513-227.995
			c0.082-0.263,0.363-0.41,0.627-0.327c0.264,0.083,0.409,0.364,0.326,0.627c-11.121,35.301-15.078,179.418-8.476,227.558
			c0.038,0.274-0.153,0.526-0.427,0.563C589.551,520.024,589.528,520.026,589.505,520.026z"/><path fill="#9F36AD" d="M618.81,510.847c-0.234,0-0.443-0.166-0.49-0.405c-6.654-34.494-1.473-129.139,0.23-160.239l0.284-5.229
			c0.015-0.275,0.259-0.49,0.525-0.473c0.276,0.015,0.487,0.25,0.473,0.526l-0.284,5.229c-1.701,31.071-6.878,125.623-0.246,159.996
			c0.052,0.271-0.125,0.533-0.396,0.586C618.873,510.844,618.842,510.847,618.81,510.847z"/><linearGradient id="ax" x1="597" x2="631.669" y1="421.69" y2="421.69" gradientUnits="userSpaceOnUse"><stop offset="0" stop-color="#7c1da5"/><stop offset="1" stop-color="#3c2068"/></linearGradient><path fill="url(#ax)" d="M631.079,405.505c-9.731,2.959-24.739,7.661-30.87,10.328c-1.917,0.834-3.209,2.302-3.209,3.959
		v15.541c0,1.657,1.219,2.542,2.876,2.542l31.793-13.899c-0.001-0.447-0.002-0.886-0.002-1.309
		C631.667,418.887,631.446,412.879,631.079,405.505z"/><path fill="#9F36AD" d="M600.338,438.182c-0.17,0-0.337-0.088-0.431-0.245c-0.262-0.442-0.399-0.959-0.409-1.536l-0.279-15.538
			c-0.032-1.81,1.25-3.484,3.43-4.479c4.904-2.239,15.61-5.917,23.729-8.607c0.261-0.088,0.546,0.056,0.632,0.317
			c0.087,0.262-0.056,0.545-0.317,0.632c-11.607,3.848-19.777,6.811-23.627,8.568c-1.807,0.824-2.87,2.152-2.846,3.552l0.279,15.538
			c0.007,0.402,0.098,0.753,0.271,1.044c0.141,0.237,0.062,0.544-0.176,0.686C600.513,438.159,600.425,438.182,600.338,438.182z"/><path fill="#3369FF" d="M607.084,435.224c-0.276,0-0.5-0.224-0.5-0.5v-11.057c0-1.953,1.627-3.442,3.24-4.052l0.881-0.339
			c2.016-0.782,5.062-1.964,7.21-2.148c0.927-0.078,1.729,0.163,2.319,0.705c0.602,0.552,0.933,1.39,0.933,2.36v8.592
			c0,0.276-0.224,0.5-0.5,0.5s-0.5-0.224-0.5-0.5v-8.592c0-0.696-0.211-1.258-0.608-1.623c-0.379-0.349-0.922-0.499-1.558-0.446
			c-2.006,0.173-4.972,1.323-6.934,2.084l-0.89,0.343c-1.291,0.487-2.594,1.641-2.594,3.116v11.057
			C607.584,435,607.36,435.224,607.084,435.224z"/><linearGradient id="ay" x1="571.621" x2="615.002" y1="283.753" y2="283.753" gradientUnits="userSpaceOnUse"><stop offset="0" stop-color="#7c18a1"/><stop offset="1" stop-color="#042637"/></linearGradient><path fill="url(#ay)" d="M574,277.5c2.062-2.062,10.523-1.186,19.667-2.667c10.291-1.667,14.833-3.208,15.5-5.5
			c0.837-2.874-3.167-6.167-3.167-6.167s9.167,5.334,9,7.667s-5.833,17.667-5.833,17.667s-10.833,5.167-18.5,8.5
			s-15.166,8.333-17.5,7.167S571.167,280.333,574,277.5z"/><path fill="#3369FF" d="M575.23,304.139c-0.616-2.872-0.739-5.75-0.82-8.625c-0.052-2.875,0.009-5.752,0.28-8.623
			c0.142-1.436,0.323-2.87,0.638-4.299c0.163-0.714,0.349-1.428,0.655-2.136c0.16-0.353,0.336-0.709,0.651-1.046
			c0.31-0.318,0.693-0.53,1.042-0.683c1.436-0.59,2.875-0.757,4.308-0.948c1.433-0.17,2.862-0.282,4.289-0.39
			c2.854-0.212,5.701-0.394,8.523-0.74c2.813-0.351,5.619-0.893,8.353-1.638c1.363-0.382,2.712-0.822,4.001-1.384
			c1.264-0.567,2.568-1.238,3.383-2.264c0.821-1.018,0.428-2.506-0.23-3.689c-0.666-1.215-1.576-2.33-2.566-3.339
			c-0.037-0.035-0.04-0.093-0.006-0.13c0.032-0.035,0.088-0.037,0.125-0.01c1.126,0.904,2.142,1.953,2.92,3.208
			c0.387,0.626,0.69,1.325,0.813,2.09c0.126,0.751-0.011,1.644-0.514,2.271c-0.98,1.235-2.331,1.897-3.64,2.509
			c-1.328,0.591-2.701,1.05-4.086,1.449c-2.776,0.779-5.596,1.345-8.451,1.724c-2.852,0.372-5.711,0.575-8.557,0.809
			c-1.422,0.118-2.843,0.241-4.247,0.418c-1.391,0.189-2.826,0.391-4.038,0.906c-0.63,0.265-0.94,0.609-1.202,1.256
			c-0.259,0.606-0.435,1.284-0.583,1.963c-0.29,1.366-0.459,2.774-0.587,4.184c-0.241,2.823-0.324,5.67-0.269,8.511
			c0.075,2.832,0.204,5.7,0.789,8.425l0.003,0.01c0.058,0.27-0.114,0.536-0.384,0.594
			C575.554,304.581,575.288,304.409,575.23,304.139L575.23,304.139z"/><path fill="#3369FF" d="M597.249,294.837c-0.051,0-0.103-0.008-0.154-0.024c-0.263-0.085-0.406-0.367-0.321-0.63
				c1.427-4.397,5.532-18.502,5.573-18.644c0.076-0.266,0.351-0.42,0.62-0.34c0.266,0.077,0.418,0.354,0.341,0.62
				c-0.042,0.142-4.152,14.262-5.583,18.673C597.656,294.703,597.46,294.837,597.249,294.837z"/></g><g><linearGradient id="az" x1="607.331" x2="650.249" y1="365.305" y2="365.305" gradientUnits="userSpaceOnUse"><stop offset="0" stop-color="#7d59d0"/><stop offset="1" stop-color="#7c18a1"/></linearGradient><path fill="url(#az)" d="M650.249,431.576c-0.012-1.029-0.464-37.389-3.748-59.076c-3.706-24.47-15.668-71-22.751-75
		c-3.603-2.034-16.189,9.168-16.416,34.833c-0.168,19,6.32,34.17,10.5,51.333c3.916,16.079,10.924,41.884,12,49
		c0.036,0.237,0.067,0.45,0.102,0.677C634.657,431.67,643.763,431.094,650.249,431.576z"/><linearGradient id="aA" x1="641.136" x2="649.804" y1="409.693" y2="409.693" gradientUnits="userSpaceOnUse"><stop offset="0" stop-color="#3369ff"/><stop offset="1" stop-color="#7c18a1"/></linearGradient><path fill="url(#aA)" d="M641.136,404.244l1.158,10.903l7.51-0.394l-0.391-9.004
			C649.413,405.75,647.188,404.154,641.136,404.244z"/><path fill="#3369FF" d="M642.294,415.647c-0.255,0-0.47-0.191-0.497-0.447l-1.158-10.903c-0.015-0.14,0.029-0.279,0.123-0.385
			c0.093-0.104,0.227-0.166,0.366-0.168l0.496-0.004c5.777,0,7.989,1.538,8.08,1.604c0.125,0.089,0.202,0.231,0.209,0.385
			l0.391,9.004c0.012,0.274-0.2,0.507-0.474,0.521l-7.51,0.394C642.312,415.647,642.303,415.647,642.294,415.647z M641.691,404.74
			l1.05,9.883l6.541-0.343l-0.357-8.238C648.299,405.706,646.125,404.75,641.691,404.74z"/><linearGradient id="aB" x1="629.936" x2="654.501" y1="450.172" y2="450.172" gradientUnits="userSpaceOnUse"><stop offset="0" stop-color="#c16846"/><stop offset=".265" stop-color="#d27565"/><stop offset=".531" stop-color="#de7f7b"/><stop offset=".781" stop-color="#e58589"/><stop offset="1" stop-color="#e8878e"/></linearGradient><path fill="url(#aB)" d="M638.5,462.25c2.083-0.667,1.375-9.625,1.375-9.625s1.439,0.751,3.564,5.126
		s5.713,11.913,7.686,11.124c1.25-0.5,1-4.083,1-4.083s1.75-0.167,2.125-3.542c0.418-3.76,0.5-14.375-1.25-21.125
		s-2.75-8.5-2.75-8.5s0-0.034-0.001-0.049c-6.486-0.482-15.592,0.094-20.313,1.768c1.149,7.648,1.28,9.34,1.966,13.283
		C632.904,452.393,636.569,462.868,638.5,462.25z"/><path fill="#B75334" d="M649.495 455.382c.932 1.418 1.552 2.964 2.034 4.54.473 1.579.769 3.207.877 4.846.011.155-.107.29-.263.301-.151.01-.283-.103-.3-.252-.178-1.588-.535-3.152-1.06-4.654-.529-1.494-1.201-2.958-2.111-4.21-.163-.223-.114-.536.108-.699.224-.163.536-.114.699.108C649.484 455.367 649.491 455.376 649.495 455.382zM640.303 447.381c-.15.327-.195.807-.231 1.264-.032.463-.041.938-.039 1.412.006.95.059 1.907.129 2.863.012.146-.098.274-.244.286-.139.011-.262-.089-.283-.224-.149-.957-.281-1.917-.366-2.891-.042-.486-.073-.976-.079-1.474.006-.5-.013-1.004.175-1.583l.006-.017c.086-.264.368-.408.632-.323.263.086.407.368.322.632C640.317 447.346 640.31 447.363 640.303 447.381z"/><g><path fill="#3369FF" d="M643.193,431.944c-0.003,0-0.006,0-0.009,0c-0.275-0.005-0.496-0.232-0.491-0.509
			c0.327-19.505-11.185-107.714-28.406-127.162c-0.184-0.207-0.164-0.523,0.043-0.706c0.205-0.182,0.521-0.164,0.705,0.043
			c17.37,19.615,28.987,108.255,28.658,127.842C643.688,431.726,643.466,431.944,643.193,431.944z"/></g></g><g><path fill="#3369FF" d="M316,112.292l-211.428,18.377c-6.439,18.099-8.207,38.119-5.905,60.998
		C107.209,276.582,170.5,306,199,340.5c0.804,0.974,1.573,1.976,2.317,3L316,297.75V112.292z"/><linearGradient id="aC" x1="92.031" x2="309.469" y1="228.148" y2="228.148" gradientUnits="userSpaceOnUse"><stop offset="0" stop-color="#042637"/><stop offset="1" stop-color="#2335e0"/></linearGradient><path fill="url(#aC)" d="M309.469,120.5l-207.823,19.809c-3.99,15.524-4.88,32.462-2.979,51.357
		c8.152,81.035,66.162,111.529,96.215,144.13l114.587-41.449V120.5z"/><path fill="#3369FF" d="M205.479,310.445c-14.122-3.012-36.548-17.104-40.452-43.58c-2.098-14.229,0.04-25.959,2.107-37.304
			c1.876-10.295,3.648-20.02,2.14-30.969c-2.3-16.689-15.508-25.945-22.171-28.508l1.795-4.667
			c8.178,3.146,22.716,13.528,25.329,32.492c1.618,11.742-0.31,22.319-2.173,32.548c-1.995,10.946-4.058,22.265-2.08,35.678
			c3.532,23.955,23.792,36.699,36.548,39.42L205.479,310.445z"/></g><g><linearGradient id="aD" x1="234.667" x2="349.75" y1="177.919" y2="177.919" gradientUnits="userSpaceOnUse"><stop offset=".218" stop-color="#00afaf"/><stop offset=".399" stop-color="#00b4b5"/><stop offset=".634" stop-color="#00c1c5"/><stop offset=".898" stop-color="#00d8e0"/><stop offset="1" stop-color="#00e2ec"/></linearGradient><path fill="url(#aD)" d="M349.75,118.75c-0.5,6.25-2.924,35.177-0.917,53.583c4,36.667-12.06,44.331-14.364,57.905
		C332.97,239.072,340,245,340,245s-8.667,10.833-48.5,4.167s-56.833-27.5-56.833-27.5s40.667-45,45.667-74.667
		s9.953-43.803,36.643-42.401S349.75,118.75,349.75,118.75z"/><path fill="#13E7ED" d="M340,245c0,0-7.03-5.928-5.53-14.762c2.304-13.574,18.364-21.238,14.364-57.905
		c-2.008-18.406,0.417-47.333,0.917-53.583c0,0-0.803-1.668-3.078-3.861C345.23,125.672,346.5,147.215,346.5,156
		c0,9.75,2.5,29-15,46.75c-15.914,16.141-17.355,29.39-15.982,48.578C335.056,251.165,340,245,340,245z"/><linearGradient id="aE" x1="234.667" x2="317.263" y1="177.542" y2="177.542" gradientUnits="userSpaceOnUse"><stop offset="0" stop-color="#34bbff"/><stop offset="1" stop-color="#7182e2"/></linearGradient><path fill="url(#aE)" d="M296.373,203.895c0.499-11.632,10.377-12.145,18.377-46.645c5.25-22.639,1.803-38.888-5.966-52.524
		c-19.598,1.856-24.013,15.942-28.451,42.274c-5,29.667-45.667,74.667-45.667,74.667s17,20.833,56.833,27.5
		c2.94,0.492,5.69,0.878,8.3,1.191C309.497,231.247,295.875,215.499,296.373,203.895z"/></g><g><linearGradient id="aF" x1="194.432" x2="294.789" y1="232.144" y2="232.144" gradientUnits="userSpaceOnUse"><stop offset="0" stop-color="#c55dd7"/><stop offset=".497" stop-color="#e868ef"/><stop offset="1" stop-color="#e9b6f2"/></linearGradient><path fill="url(#aF)" d="M294.789,230.13c-1.937-5.106-4.243-9.396-7.039-12.13c-7.214-7.054-21.652-8.058-28.75-7.75
		c0,0-3.5,1.75-11.286-4.28S227,176.25,215,172.25s-21.572,2.368-18.184,23.128C200.833,220,187,250.333,200.5,272
		c14.315,22.974,44.401,22.739,51.25,19.75c1.175-4.622,6.443-18.956,9.25-22.376l0,0
		C264.156,263.843,279.077,234.49,294.789,230.13z"/><linearGradient id="aG" x1="244.59" x2="244.59" y1="236.19" y2="171.121" gradientUnits="userSpaceOnUse"><stop offset="0" stop-color="#7558ce"/><stop offset="1" stop-color="#e868ef"/></linearGradient><path fill="url(#aG)" d="M259,210.25c0,0-3.5,1.75-11.286-4.28S227,176.25,215,172.25
		c-7.056-2.352-13.268-1.114-16.504,4.521c7.732,18.789,28.15,56.242,34.254,58.729c6.367,2.594,38.752-2.156,57.934-13.823
		c-0.914-1.417-1.89-2.656-2.934-3.677C280.536,210.946,266.098,209.942,259,210.25z"/><path fill="#00CFFF" d="M238.43,236.691c-2.641,0-4.672-0.241-5.868-0.729c-0.256-0.104-0.379-0.396-0.274-0.651
			c0.104-0.256,0.396-0.379,0.651-0.274c6.517,2.655,38.569-2.275,57.491-13.783c0.237-0.143,0.543-0.068,0.687,0.167
			s0.068,0.543-0.167,0.687C275.243,231.661,250.492,236.691,238.43,236.691z"/><path fill="#00CFFF" d="M223.945,290.659c-0.107,0-0.216-0.035-0.308-0.106c-0.217-0.17-0.256-0.484-0.086-0.702
			c6.581-8.421,7.814-32.619,7.284-38.809c-0.499-5.82,0.386-13.969,3.488-19.053c6.096-9.992,14.068-17.666,19.534-22.569
			c0.205-0.185,0.521-0.168,0.706,0.038c0.185,0.206,0.167,0.522-0.038,0.706c-5.419,4.861-13.32,12.465-19.348,22.345
			c-2.984,4.891-3.83,12.789-3.345,18.447c0.539,6.28-0.745,30.875-7.492,39.51C224.241,290.593,224.094,290.659,223.945,290.659z"/><linearGradient id="aH" x1="217.908" x2="243.444" y1="267.594" y2="267.594" gradientUnits="userSpaceOnUse"><stop offset="0" stop-color="#00cfff"/><stop offset="1" stop-color="#5979fc"/></linearGradient><path fill="url(#aH)" d="M243.106,270.569c-0.12,1.38-1.337,2.401-2.717,2.28l-20.193-1.768
			c-1.379-0.121-2.4-1.337-2.279-2.716l0.328-3.747c0.12-1.38,1.337-2.4,2.716-2.28l20.193,1.768c1.38,0.121,2.4,1.337,2.28,2.716
			L243.106,270.569z"/><path fill="#00CFFF" d="M240.611,273.359c-0.087,0-0.176-0.004-0.265-0.012l-20.193-1.768c-0.8-0.07-1.525-0.447-2.042-1.063
			c-0.517-0.615-0.762-1.395-0.692-2.195l0.328-3.747c0.141-1.627,1.608-2.882,3.258-2.734l20.193,1.768
			c0.8,0.07,1.526,0.447,2.042,1.063c0.517,0.616,0.762,1.395,0.692,2.195l-0.328,3.747
			C243.471,272.153,242.155,273.359,240.611,273.359z M220.741,262.829c-1.03,0-1.908,0.805-1.997,1.833l-0.328,3.747
			c-0.047,0.534,0.118,1.055,0.462,1.465c0.345,0.411,0.829,0.663,1.363,0.709l20.193,1.768c1.109,0.094,2.081-0.739,2.175-1.826
			l0.328-3.747c0.047-0.534-0.118-1.055-0.462-1.465s-0.829-0.663-1.363-0.709l-20.193-1.768
			C220.859,262.831,220.799,262.829,220.741,262.829z"/><g><path fill="#3369FF" d="M241.926,294.153c-12.443,0-31.668-4.603-42.274-21.624c-8.347-13.396-6.336-30.988-4.392-48
			c1.238-10.833,2.518-22.035,0.952-31.633c-0.089-0.545,0.281-1.059,0.826-1.148c0.543-0.089,1.059,0.281,1.148,0.826
			c1.611,9.872,0.315,21.214-0.939,32.182c-1.905,16.672-3.875,33.911,4.103,46.715c13.887,22.287,43.055,22.393,50.001,19.362
			c0.503-0.222,1.096,0.009,1.316,0.517c0.221,0.506-0.01,1.096-0.517,1.316C250.18,293.526,246.512,294.153,241.926,294.153z"/></g></g><g><linearGradient id="aI" x1="261" x2="482.088" y1="280.38" y2="280.38" gradientUnits="userSpaceOnUse"><stop offset="0" stop-color="#c55dd7"/><stop offset=".497" stop-color="#e868ef"/><stop offset="1" stop-color="#e9b6f2"/></linearGradient><path fill="url(#aI)" d="M261.506,268.856C264.583,272.083,272.75,301.5,277,321s15.75,37.5,31.5,36.25s34.5-29,49.25-49.75
		s42.375-66.5,42.375-66.5s12.446,1.506,27.063,0.938c16.063-0.625,24.438-5.064,29.813-6.625
		c6.262-1.819,12.396-2.412,13.375-3.563c1.063-1.25,0.125-2.5-1.125-3.125c3.125-0.125,11.023-4.008,11.25-6.125
		c0.188-1.75-2.744-1.09-2.744-1.09s4.744-1.848,4.303-3.575c-0.467-1.827-13.059-1.085-16.684-1.085s-11.734-0.464-19-0.625
		c-7.458-0.165-15.542,0.125-19.75,0.75c5.25-1.75,13.75-9.598,12.375-12.75c-1-2.292-8.875,1.875-14.125,3
		s-16.741,3.309-26.542,8.208c-10.333,5.167-18.667,13.5-31.833,31.333s-52.25,58.583-52.25,58.583s-5.583-13.417-8.75-26.75
		c-2.38-10.02-4.854-32.932-10.711-48.37c-15.712,4.36-30.633,33.713-33.789,39.244l0,0
		C261.18,269.156,261.349,268.98,261.506,268.856z"/><linearGradient id="aJ" x1="261" x2="400.125" y1="299.052" y2="299.052" gradientUnits="userSpaceOnUse"><stop offset="0" stop-color="#7558ce"/><stop offset="1" stop-color="#e868ef"/></linearGradient><path fill="url(#aJ)" d="M373.333,251.833c-9.5,12.5-15,25.667-22.333,35.333s-31.973,43.378-44.354,41.796
		C296.5,327.667,291,315.667,286.833,299c-3.607-14.428-6.72-41.206-15.094-47.6c-5.352,7.863-9.289,15.433-10.739,17.974
		c0.179-0.218,0.349-0.394,0.506-0.518C264.583,272.083,272.75,301.5,277,321s15.75,37.5,31.5,36.25s34.5-29,49.25-49.75
		s42.375-66.5,42.375-66.5C391.833,240.667,382.833,239.333,373.333,251.833z"/><path fill="#00CFFF" d="M313.798,356.418c-0.146,0-0.292-0.064-0.39-0.187c-13.811-17.166-5.065-44.844,0.462-51.307
			c0.18-0.209,0.496-0.233,0.705-0.055c0.209,0.179,0.234,0.495,0.055,0.705c-5.389,6.3-13.912,33.288-0.443,50.029
			c0.173,0.215,0.139,0.53-0.076,0.703C314.019,356.382,313.908,356.418,313.798,356.418z"/><path fill="#00CFFF" d="M307.485,329.515c-0.307,0-0.608-0.019-0.902-0.056c-9.159-1.17-15.21-10.243-20.234-30.338
			c-0.873-3.491-1.716-7.702-2.609-12.16c-2.717-13.563-6.098-30.441-12.305-35.176c-0.22-0.167-0.262-0.481-0.094-0.701
			c0.167-0.219,0.481-0.263,0.701-0.094c6.507,4.963,9.786,21.332,12.679,35.774c0.891,4.446,1.732,8.646,2.599,12.115
			c4.842,19.368,10.822,28.493,19.391,29.588c11.409,1.455,34.037-28.535,42.551-39.827l1.341-1.775
			c3.405-4.488,6.43-9.766,9.633-15.354c3.745-6.534,7.618-13.291,12.701-19.98c9.04-11.894,17.83-11.473,25.583-11.104
			c0.545,0.026,1.087,0.052,1.627,0.074c0.276,0.011,0.491,0.244,0.479,0.52s-0.257,0.5-0.52,0.479
			c-0.542-0.021-1.087-0.048-1.635-0.074c-7.875-0.376-16.017-0.766-24.739,10.71c-5.044,6.637-8.9,13.365-12.629,19.872
			c-3.219,5.617-6.26,10.922-9.704,15.461l-1.339,1.773C341.661,300.38,319.694,329.515,307.485,329.515z"/><path fill="#668DE7" d="M469.677 228.871c-1.236-.317-2.528-.337-3.807-.287-1.281.06-2.563.179-3.838.361-2.55.37-5.087.855-7.61 1.416l-7.579 1.724c-.626.134-1.297.269-1.957.317-.682.048-1.339.028-2-.035-1.311-.143-2.618-.411-3.819-.985-.072-.034-.102-.12-.068-.191.032-.067.109-.098.177-.074l.006.002c1.195.427 2.48.6 3.746.665.632.032 1.275.019 1.884-.053.633-.07 1.227-.241 1.866-.38 2.513-.595 5.027-1.261 7.573-1.78 2.543-.532 5.102-1.027 7.698-1.297 2.579-.253 5.257-.454 7.812.293.084.024.132.112.107.196C469.844 228.845 469.759 228.892 469.677 228.871zM457.252 222.864c3.667-.097 7.298-.565 10.939-1.029 1.819-.25 3.64-.511 5.475-.703 1.832-.185 3.692-.366 5.563-.132.086.011.146.089.136.175-.01.077-.073.134-.147.137l-.008 0c-1.813.085-3.617.429-5.433.679-1.814.278-3.637.536-5.468.754-3.653.461-7.363.781-11.061.558-.121-.006-.215-.109-.209-.23C457.045 222.958 457.141 222.869 457.252 222.864z"/><path fill="#00CFFF" d="M261,269.874c-0.084,0-0.169-0.021-0.248-0.066c-0.24-0.137-0.323-0.442-0.186-0.682
			c0.267-0.467,0.618-1.105,1.046-1.885c4.565-8.301,18.457-33.561,33.037-37.611c0.265-0.073,0.542,0.082,0.616,0.348
			c0.074,0.266-0.082,0.542-0.348,0.616c-14.174,3.938-27.914,28.92-32.429,37.129c-0.432,0.785-0.785,1.428-1.054,1.899
			C261.342,269.784,261.174,269.874,261,269.874z"/><linearGradient id="aK" x1="294.25" x2="318.75" y1="329.5" y2="329.5" gradientUnits="userSpaceOnUse"><stop offset="0" stop-color="#00cfff"/><stop offset="1" stop-color="#5979fc"/></linearGradient><path fill="url(#aK)" d="M318.75,331c0,3.866-3.134,7-7,7h-10.5c-3.866,0-7-3.134-7-7v-3c0-3.866,3.134-7,7-7h10.5
			c3.866,0,7,3.134,7,7V331z"/><path fill="#00CFFF" d="M311.75,338.5h-10.5c-4.136,0-7.5-3.364-7.5-7.5v-3c0-4.136,3.364-7.5,7.5-7.5h10.5
			c4.136,0,7.5,3.364,7.5,7.5v3C319.25,335.136,315.886,338.5,311.75,338.5z M301.25,321.5c-3.584,0-6.5,2.916-6.5,6.5v3
			c0,3.584,2.916,6.5,6.5,6.5h10.5c3.584,0,6.5-2.916,6.5-6.5v-3c0-3.584-2.916-6.5-6.5-6.5H301.25z"/><g><linearGradient id="aL" x1="337.677" x2="359.059" y1="282.844" y2="282.844" gradientUnits="userSpaceOnUse"><stop offset="0" stop-color="#00cfff"/><stop offset="1" stop-color="#5979fc"/></linearGradient><path fill="url(#aL)" d="M355.214,292.296c-1.123,1.218-3.021,1.295-4.24,0.172c0,0-12.6-7.968-13.297-12.262
			c1.479-1.622,5.01-6.144,7.052-7.781c2.896,4.574,13.363,12.323,13.363,12.323c1.218,1.123,1.295,3.021,0.172,4.239
			L355.214,292.296z"/><path fill="#00CFFF" d="M353.008,293.762c-0.881,0-1.724-0.329-2.372-0.926c-0.451-0.275-12.727-8.085-13.452-12.549l-0.039-0.238
			l0.163-0.179c0.43-0.471,1.033-1.188,1.724-2.008c1.739-2.066,3.903-4.637,5.386-5.826l0.436-0.35l0.299,0.472
			c2.813,4.444,13.134,12.111,13.238,12.188c0.729,0.668,1.128,1.531,1.166,2.466c0.038,0.934-0.29,1.827-0.924,2.514l-3.05,3.308
			C354.921,293.352,353.983,293.762,353.008,293.762z M338.219,280.352c0.893,3.395,9.647,9.559,13.022,11.694
			c1.127,1.015,2.708,0.886,3.605-0.089l3.05-3.308c0.453-0.491,0.687-1.128,0.66-1.796c-0.027-0.667-0.313-1.284-0.803-1.737
			c-0.376-0.275-9.859-7.32-13.127-11.946c-1.401,1.26-3.362,3.59-4.831,5.334C339.184,279.233,338.638,279.881,338.219,280.352z"/></g></g><g><linearGradient id="aM" x1="268.097" x2="268.097" y1="214.111" y2="171.5" gradientUnits="userSpaceOnUse"><stop offset="0" stop-color="#c55dd7"/><stop offset="1" stop-color="#e868ef"/></linearGradient><path fill="url(#aM)" d="M291.5,192.5c-5,4.667-26.167,20.833-26.167,20.833s-14.333,1.5-20,0.333S273.5,171.5,273.5,171.5
		L291.5,192.5z"/><linearGradient id="aN" x1="273.473" x2="340.307" y1="113.753" y2="180.587" gradientUnits="userSpaceOnUse"><stop offset="0" stop-color="#c55dd7"/><stop offset=".497" stop-color="#e868ef"/><stop offset="1" stop-color="#e9b6f2"/></linearGradient><path fill="url(#aN)" d="M347,118.25c1,10.917,0,80.25-35.25,81.5c-26.233,0.93-40.25-19.583-40.25-19.583
		s1.25-67.167,6.25-70.667s38-6.5,49-4S347,118.25,347,118.25z"/><linearGradient id="aO" x1="303.78" x2="316.477" y1="131.124" y2="143.821" gradientUnits="userSpaceOnUse"><stop offset="0" stop-color="#231f20"/><stop offset=".102" stop-color="#262228"/><stop offset=".264" stop-color="#2f2a3f"/><stop offset=".465" stop-color="#3d3865"/><stop offset=".699" stop-color="#504a99"/><stop offset=".956" stop-color="#6962db"/><stop offset="1" stop-color="#6d66e7"/></linearGradient><path fill="url(#aO)" d="M304.375,130.529v13.283c0,2.865,2.125,5.146,5.125,5.021c3.72-0.155,4.889-3.276,5.448-6.085
		c0.478-2.403,1.248-8.727,1.743-13.001C312.887,129.33,307.058,130.102,304.375,130.529z"/><path fill="#5097FF" d="M314.042,136.458l-6.792,5.625c0,0,0.667,3.917,3.917,2.917
		C313.959,144.141,314.042,136.458,314.042,136.458z"/><linearGradient id="aP" x1="334.701" x2="346.919" y1="133.835" y2="146.053" gradientUnits="userSpaceOnUse"><stop offset="0" stop-color="#231f20"/><stop offset=".102" stop-color="#262228"/><stop offset=".264" stop-color="#2f2a3f"/><stop offset=".465" stop-color="#3d3865"/><stop offset=".699" stop-color="#504a99"/><stop offset=".956" stop-color="#6962db"/><stop offset="1" stop-color="#6d66e7"/></linearGradient><path fill="url(#aP)" d="M336.285,132.25v13.132c0,2.674,1.983,4.803,4.784,4.687c3.472-0.145,4.563-3.058,5.085-5.68
		c0.446-2.243,0.273-6.387,0.736-10.376C343.188,132.625,339.062,132.199,336.285,132.25z"/><path fill="#5097FF" d="M345.121,138.831l-6.34,5.25c0,0,0.623,3.655,3.656,2.722C345.043,146.001,345.121,138.831,345.121,138.831
		z"/><linearGradient id="aQ" x1="324.125" x2="336.497" y1="146.906" y2="146.906" gradientUnits="userSpaceOnUse"><stop offset="0" stop-color="#7558ce"/><stop offset="1" stop-color="#e868ef"/></linearGradient><path fill="url(#aQ)" d="M329.833,130.75c1.167,3,7.625,28.25,6.542,30s-12.25,2.313-12.25,2.313s2.408-5.196,3.625-12.979
		C329.063,141.688,329.833,130.75,329.833,130.75z"/><path fill="#FFF" d="M305.688,173.563c0.688-0.875,8.313,1.563,14.938,2.063c2.807,0.212,6.063,0.313,6.063,0.313
		s-4,10.25-11,10.063C308.249,185.801,305,174.438,305.688,173.563z"/></g><g><linearGradient id="aR" x1="175.206" x2="356.534" y1="159.214" y2="159.214" gradientUnits="userSpaceOnUse"><stop offset="0" stop-color="#00afaf"/><stop offset="1" stop-color="#00e2ec"/></linearGradient><path fill="url(#aR)" d="M295.5,117.333c6.333-3.667,36.667-5.833,60,8.833c4.5-15.167-4.321-55.926-53.979-58.583
		C253.25,65,233.667,95,213.667,124.667c-15.847,23.505-29.502,30.479-38.46,32.229c3.46,0.688,8.581,5.032,13.127,13.771
		c6.628,12.74,13.667,50.083,23.333,64.667c8.89,13.412,19.667,15.667,19.667,15.667s-0.95-6.088,2.814-11.59
		c6.353-9.285,34.353-28.076,45.427-50.833C295.506,155.836,288.667,136.333,295.5,117.333z"/><path fill="#0FF" d="M355.5 126.167c1.465-4.937 1.516-12.584-.79-20.746-.536 2.234-1.664 4.398-4.043 4.579-9.632.731-11.159-13.805-18.667-14.167-6.917-.333-9.667 6.333-11.5 10.5s-6 7.333-10.827 8.359l-.001.002C322.24 114.219 340.343 116.64 355.5 126.167zM290.25 111.5c-6.286 17.787-2.496 27.502-7.75 39.5-7.5 17.125-36.882 20.237-40.25 33.25-1.833 7.083 5 7.083 3.75 14.5-2.58 15.306-27.534 13.537-38.213 29.306 1.247 2.776 2.537 5.252 3.879 7.277 8.89 13.412 19.667 15.667 19.667 15.667s-.95-6.088 2.814-11.59c6.353-9.285 34.353-28.076 45.427-50.833 15.932-32.74 9.093-52.243 15.926-71.243 4.25-18.458 14-28.833 14-28.833S296.536 93.713 290.25 111.5z"/><linearGradient id="aS" x1="219.15" x2="273.104" y1="201.846" y2="53.61" gradientUnits="userSpaceOnUse"><stop offset=".267" stop-color="#00a39f"/><stop offset="1" stop-color="#00e2ec"/></linearGradient><path fill="url(#aS)" d="M211,161.75c7.543-28.616,24.338-67.495,49-81.75s41.532-12.832,60.719-8.688
		c0,0,5.595,1.793,5.595,1.793c-6.823-2.993-15.013-4.999-24.793-5.522C253.25,65,233.667,95,213.667,124.667
		c-15.847,23.505-29.502,30.479-38.46,32.229c3.46,0.688,8.581,5.032,13.127,13.771c2.542,4.887,5.146,13.397,7.934,22.851
		C196.268,193.518,203.333,190.833,211,161.75z"/></g><g><linearGradient id="aT" x1="256.094" x2="283.419" y1="161.34" y2="161.34" gradientUnits="userSpaceOnUse"><stop offset="0" stop-color="#9f36ad"/><stop offset="1" stop-color="#c5188e"/></linearGradient><path fill="url(#aT)" d="M261.654,151.175l0.451,0.864l0.417,0.764c0.278,0.495,0.59,1.029,0.913,1.527
		c0.642,1.013,1.336,2.003,2.084,2.958c1.499,1.908,3.19,3.696,5.044,5.313c1.854,1.615,3.872,3.065,6.03,4.245
		c2.153,1.167,4.469,2.109,6.825,2.4l-0.089,2.256c-2.845,0.038-5.553-0.674-8.116-1.632c-2.564-0.976-4.993-2.26-7.287-3.76
		c-2.293-1.503-4.451-3.229-6.447-5.156c-0.997-0.965-1.948-1.986-2.853-3.056c-0.461-0.536-0.884-1.072-1.327-1.655l-0.642-0.869
		l-0.565-0.795L261.654,151.175z"/><linearGradient id="aU" x1="249.903" x2="269.354" y1="112.032" y2="112.032" gradientUnits="userSpaceOnUse"><stop offset="0" stop-color="#7558ce"/><stop offset="1" stop-color="#e868ef"/></linearGradient><path fill="url(#aU)" d="M269.354,91.103c-2.294,3.172-4.473,6.329-6.134,9.672c-1.697,3.318-2.933,6.766-3.715,10.283
		c-0.784,3.521-1.076,7.11-1.081,10.707c0.026,3.601,0.397,7.211,0.931,10.818l-9.211,1.084c-0.365-4.098-0.328-8.272,0.19-12.417
		c0.482-4.144,1.522-8.26,3.107-12.133c1.572-3.878,3.758-7.479,6.368-10.614c1.321-1.559,2.733-3.011,4.201-4.369
		c1.494-1.335,3.032-2.589,4.635-3.736L269.354,91.103z"/><linearGradient id="aV" x1="278.272" x2="296.024" y1="171.46" y2="171.46" gradientUnits="userSpaceOnUse"><stop offset="0" stop-color="#c5188e"/><stop offset="1" stop-color="#9f36ad"/></linearGradient><path fill="url(#aV)" d="M295.882,173.633c-0.519,2.147-2.68,3.468-4.827,2.95l-9.721-2.347
		c-2.147-0.518-3.468-2.679-2.95-4.827l0.029-0.122c0.519-2.147,2.68-3.468,4.828-2.95l9.72,2.347
		c2.147,0.519,3.468,2.68,2.95,4.827L295.882,173.633z"/><path fill="#00CFFF" d="M279.817,173.504c-0.686-1.547-0.227-3.651,1.249-4.805c0.713-0.584,1.637-0.915,2.574-0.945
		c0.457-0.023,0.969,0.076,1.36,0.174l1.226,0.284c1.628,0.402,3.253,0.816,4.865,1.287c0.807,0.229,1.61,0.478,2.412,0.731
		c0.39,0.139,0.812,0.259,1.198,0.423c0.404,0.173,0.768,0.413,1.076,0.702c-0.373-0.203-0.762-0.349-1.151-0.447
		c-0.413-0.094-0.816-0.131-1.238-0.201c-0.829-0.14-1.656-0.285-2.479-0.449c-1.649-0.316-3.285-0.689-4.917-1.075l-1.22-0.307
		c-0.42-0.115-0.739-0.169-1.124-0.179c-0.742-0.023-1.483,0.214-2.119,0.626c-0.629,0.42-1.144,1.044-1.433,1.771
		C279.769,171.846,279.683,172.664,279.817,173.504z"/><linearGradient id="aW" x1="241.5" x2="272.5" y1="141.25" y2="141.25" gradientUnits="userSpaceOnUse"><stop offset="0" stop-color="#c91c91"/><stop offset="1" stop-color="#fe6a77"/></linearGradient><circle cx="257" cy="141.25" r="15.5" fill="url(#aW)"/><path fill="#00CFFF" d="M259.243,125.911c1.895,0.51,3.68,1.44,5.253,2.652c1.556,1.237,2.878,2.781,3.867,4.527
		c1.991,3.499,2.442,7.816,1.349,11.703c-1.146,3.878-3.845,7.267-7.369,9.198c-1.758,0.965-3.692,1.59-5.665,1.831
		c-1.974,0.208-3.981,0.077-5.867-0.468c3.853,0.673,7.888-0.033,11.147-2.029c3.266-1.968,5.787-5.149,6.794-8.81
		c1.1-3.632,0.681-7.674-1.063-11.063C265.959,130.045,262.893,127.325,259.243,125.911z"/><linearGradient id="aX" x1="247.625" x2="261.875" y1="141.625" y2="141.625" gradientUnits="userSpaceOnUse"><stop offset="0" stop-color="#9f36ad"/><stop offset="1" stop-color="#c5188e"/></linearGradient><circle cx="254.75" cy="141.625" r="7.125" fill="url(#aX)"/><path fill="#00CFFF" d="M254.75,149.25c-4.205,0-7.625-3.42-7.625-7.625s3.42-7.625,7.625-7.625s7.625,3.42,7.625,7.625
			S258.955,149.25,254.75,149.25z M254.75,135c-3.653,0-6.625,2.972-6.625,6.625s2.972,6.625,6.625,6.625s6.625-2.972,6.625-6.625
			S258.403,135,254.75,135z"/></g><g><linearGradient id="aY" x1="434.293" x2="434.293" y1="182.833" y2="135.5" gradientUnits="userSpaceOnUse"><stop offset="0" stop-color="#0ff" stop-opacity=".25"/><stop offset=".085" stop-color="#09fefc" stop-opacity=".271"/><stop offset=".225" stop-color="#21fbf3" stop-opacity=".306"/><stop offset=".401" stop-color="#49f6e6" stop-opacity=".35"/><stop offset=".607" stop-color="#80f0d2" stop-opacity=".402"/><stop offset=".835" stop-color="#c6e8ba" stop-opacity=".459"/><stop offset="1" stop-color="#fde1a7" stop-opacity=".5"/></linearGradient><path fill="url(#aY)" d="M478.542,171.696c0,6.151-4.938,11.137-11.031,11.137h-66.438
		c-6.092,0-11.031-4.986-11.031-11.137v-25.059c0-6.151,4.939-11.137,11.031-11.137h66.438c6.093,0,11.031,4.986,11.031,11.137
		V171.696z"/><linearGradient id="aZ" x1="434.293" x2="434.293" y1="172.667" y2="146" gradientUnits="userSpaceOnUse"><stop offset="0" stop-color="#e9b3f2"/><stop offset="1" stop-color="#f9f7ff"/></linearGradient><path fill="url(#aZ)" d="M465.042,161.667c0,6.075-4.925,11-11,11h-39.5c-6.075,0-11-4.925-11-11V157
		c0-6.075,4.925-11,11-11h39.5c6.075,0,11,4.925,11,11V161.667z"/><linearGradient id="ba" x1="446.354" x2="446.354" y1="172.667" y2="146" gradientUnits="userSpaceOnUse"><stop offset="0" stop-color="#e367f2"/><stop offset="1" stop-color="#00e2ec"/></linearGradient><path fill="url(#ba)" d="M454.042,146h-26.376c6.075,0,11,4.925,11,11v4.667c0,6.075-4.925,11-11,11h26.376
		c6.075,0,11-4.925,11-11V157C465.042,150.925,460.117,146,454.042,146z"/><linearGradient id="bb" x1="434.293" x2="434.293" y1="227.333" y2="216.225" gradientUnits="userSpaceOnUse"><stop offset="0" stop-color="#fe6a77"/><stop offset="1" stop-color="#c91c91"/></linearGradient><ellipse cx="434.292" cy="221.779" fill="url(#bb)" rx="21.417" ry="5.554"/><ellipse cx="434.292" cy="220.779" fill="#FDE1A7" rx="10.169" ry="2.637"/><path fill="#FDE1A7" d="M406.333 184.333h-5.292c-6.893 0-12.5-5.607-12.5-12.5v-2h3v2c0 5.238 4.262 9.5 9.5 9.5h5.292V184.333zM467.542 184.333h-5.709v-3h5.709c5.238 0 9.5-4.262 9.5-9.5v-2h3v2C480.042 178.726 474.435 184.333 467.542 184.333zM391.542 148.667h-3V146.5c0-6.893 5.607-12.5 12.5-12.5h5.292v3h-5.292c-5.238 0-9.5 4.262-9.5 9.5V148.667zM480.042 148.667h-3V146.5c0-5.238-4.262-9.5-9.5-9.5h-5.709v-3h5.709c6.893 0 12.5 5.607 12.5 12.5V148.667z"/><linearGradient id="bc" x1="434.125" x2="434.125" y1="220.779" y2="182.813" gradientUnits="userSpaceOnUse"><stop offset="0" stop-color="#0ff" stop-opacity=".25"/><stop offset=".085" stop-color="#09fefc" stop-opacity=".271"/><stop offset=".225" stop-color="#21fbf3" stop-opacity=".306"/><stop offset=".401" stop-color="#49f6e6" stop-opacity=".35"/><stop offset=".607" stop-color="#80f0d2" stop-opacity=".402"/><stop offset=".835" stop-color="#c6e8ba" stop-opacity=".459"/><stop offset="1" stop-color="#fde1a7" stop-opacity=".5"/></linearGradient><polygon fill="url(#bc)" points="470.084 182.813 398.167 182.813 424.123 220.779 444.438 220.779"/></g></svg>